<svg width="290" height="515" viewBox="0 0 290 515" fill="none" xmlns="http://www.w3.org/2000/svg">
<path opacity="0.15" d="M114.188 242.781C114.188 242.781 120.229 226.028 143.389 226.028C166.549 226.028 171.986 242.781 171.986 242.781V307.85C200.986 306.15 220.319 302.266 220.319 302.266L214.076 7.26986C166.347 -5.11267 107.139 1.44279 84.5834 4.35632C79.75 4.84191 76.7292 7.26986 76.7292 7.26986L74.5139 303.237C88.007 305.665 101.299 307.121 113.986 307.85V242.781H114.188Z" fill="url(#paint0_linear_1607_1449)"/>
<path opacity="0.5" d="M93.8472 399.383L0 509.855L290 514.711L193.736 399.383H93.8472Z" fill="url(#paint1_linear_1607_1449)"/>
<path d="M195.347 401.811C195.347 405.939 172.389 409.095 144.195 409.095C116 409.095 93.0417 405.696 93.0417 401.811C93.0417 401.811 93.0417 401.811 93.0417 401.568L93.2431 401.083L98.6806 385.058H189.306L195.146 401.083L195.347 401.811Z" fill="#0B0F0D"/>
<path d="M195.146 401.083C195.146 405.21 172.188 408.367 143.993 408.367C115.799 408.367 92.8403 404.968 92.8403 401.083C92.8403 401.083 92.8403 401.083 92.8403 400.84L93.0417 400.354L98.4792 384.33H189.306L195.146 400.354V401.083Z" fill="url(#paint2_linear_1607_1449)"/>
<path d="M189.104 384.087C189.104 387.729 168.764 390.643 143.59 390.643C118.417 390.643 98.0764 387.729 98.0764 384.087C98.0764 380.445 118.417 377.532 143.59 377.532C168.764 377.532 189.104 380.445 189.104 384.087Z" fill="url(#paint3_radial_1607_1449)"/>
<path opacity="0.42" d="M191.319 390.643C191.319 394.285 169.972 397.198 143.59 397.198C117.208 397.198 95.8611 394.285 95.8611 390.643C95.8611 390.4 95.8611 390.4 96.0625 390.157C97.875 393.556 118.417 396.227 143.59 396.227C168.764 396.227 189.306 393.556 191.118 390.157C191.319 390.4 191.319 390.4 191.319 390.643Z" fill="url(#paint4_linear_1607_1449)"/>
<path d="M181.049 383.844C181.049 385.787 173.799 387.486 162.924 388.458C157.083 388.943 150.236 389.186 142.986 389.186C136.944 389.186 131.305 388.943 126.069 388.7C113.382 387.729 104.722 386.03 104.722 383.844C104.722 381.659 112.778 379.96 124.66 378.989C130.097 378.503 136.34 378.26 142.986 378.26C150.639 378.26 157.687 378.503 163.729 379.231C174 380.203 181.049 381.902 181.049 383.844Z" fill="url(#paint5_radial_1607_1449)"/>
<path opacity="0.7" d="M170.174 388.215L173.194 389.186L175.812 406.182L185.882 404.239L181.049 387.729L177.625 386.272C177.424 386.515 174 387.729 170.174 388.215Z" fill="url(#paint6_linear_1607_1449)"/>
<path opacity="0.7" d="M180.646 395.499C172.792 397.198 162.521 396.713 162.521 396.713C162.521 396.713 172.792 396.227 179.84 395.013C186.889 393.556 188.5 393.071 188.5 393.071C188.5 393.071 184.674 394.77 180.646 395.499Z" fill="url(#paint7_linear_1607_1449)"/>
<path opacity="0.42" d="M97.6737 402.54C97.2709 402.297 103.514 387.972 103.514 387.972L111.972 389.672L110.16 405.21C110.16 405.21 104.118 405.696 97.6737 402.54Z" fill="url(#paint8_linear_1607_1449)"/>
<path d="M104.319 268.517L184.271 269.245L194.34 310.035H93.6458L104.319 268.517Z" fill="#0B0F07"/>
<path d="M150.84 385.787H138.354L139.361 333.829L139.965 313.434L148.222 314.891L148.826 329.458L150.84 385.787Z" fill="url(#paint9_linear_1607_1449)"/>
<path opacity="0.5" d="M148.826 329.458C147.819 329.216 146.812 328.973 145.806 329.216C143.59 329.701 141.375 331.644 139.361 333.829L139.764 313.434L148.222 314.891L148.826 329.458Z" fill="url(#paint10_linear_1607_1449)"/>
<path d="M194.34 310.035L193.535 314.891L95.4583 316.105L93.6458 310.035L104.722 270.459H184.069L194.34 310.035Z" fill="url(#paint11_linear_1607_1449)"/>
<path d="M192.326 301.537H96.0625V302.024H192.326V301.537Z" fill="#0B0F19"/>
<path d="M177.826 302.023H108.951L115.799 286.969L172.188 287.212L177.826 302.023ZM109.556 301.537H177.424L171.986 287.455L116 287.212L109.556 301.537Z" fill="#0B0F19"/>
<path opacity="0.5" d="M93.6458 310.035L95.4583 316.105L193.535 314.891L194.34 310.035H93.6458Z" fill="url(#paint12_linear_1607_1449)"/>
<path opacity="0.5" d="M152.653 286.484C152.653 292.796 148.625 297.895 143.792 297.895C139.361 297.895 135.535 293.525 135.132 287.941C135.132 287.455 135.132 286.969 135.132 286.484C135.132 285.755 135.132 285.027 135.333 284.299C136.139 278.957 139.764 275.072 143.993 275.072C148.826 274.83 152.653 280.171 152.653 286.484Z" fill="url(#paint13_linear_1607_1449)"/>
<path d="M152.653 285.513C152.653 291.825 148.625 296.924 143.792 296.924C139.361 296.924 135.535 292.554 135.132 286.969C135.132 286.484 135.132 285.998 135.132 285.513C135.132 284.784 135.132 284.056 135.333 283.327C136.139 277.986 139.764 274.101 143.993 274.101C148.826 274.101 152.653 279.2 152.653 285.513Z" fill="url(#paint14_linear_1607_1449)"/>
<path d="M150.437 284.541C150.437 286.969 149.632 289.154 148.222 290.611C147.215 291.825 145.604 292.554 144.194 292.554C140.771 292.554 137.951 288.912 137.951 284.299C137.951 279.928 140.771 276.286 144.194 276.286C145.805 276.286 147.215 277.015 148.222 278.229C149.632 279.928 150.437 282.113 150.437 284.541Z" fill="url(#paint15_linear_1607_1449)"/>
<path d="M149.229 283.813C149.229 285.755 148.423 287.698 147.417 288.912C146.41 289.883 145.403 290.611 143.993 290.611C141.173 290.611 138.757 287.455 138.757 283.813C138.757 280.171 141.173 277.015 143.993 277.015C145.403 277.015 146.611 277.743 147.417 278.714C148.625 279.928 149.229 281.871 149.229 283.813Z" fill="#D3FCAA"/>
<path d="M146.007 281.871C146.007 282.599 145.805 283.327 145.403 283.813C145 284.299 144.597 284.299 144.194 284.299C143.187 284.299 142.382 283.085 142.382 281.871C142.382 280.414 143.187 279.443 144.396 279.443C144.799 279.443 145.403 279.686 145.604 280.171C145.805 280.414 146.007 281.142 146.007 281.871Z" fill="#0B0F07"/>
<path opacity="0.7" d="M149.229 289.154C149.833 287.941 150.236 286.241 150.236 284.541C150.236 283.085 150.035 281.871 149.43 280.657C149.43 280.657 150.437 282.113 150.437 285.027C150.639 287.941 149.229 289.154 149.229 289.154Z" fill="url(#paint16_linear_1607_1449)"/>
<path opacity="0.7" d="M146.41 330.915V385.058H150.236L148.222 331.158L146.41 330.915Z" fill="url(#paint17_linear_1607_1449)"/>
<path d="M118.215 272.159C118.215 272.402 118.618 272.644 119.021 272.644C119.423 272.644 119.826 272.402 119.826 272.159C119.826 271.916 119.423 271.673 119.021 271.673C118.618 271.673 118.215 271.916 118.215 272.159Z" fill="#0B0F07"/>
<path d="M112.375 272.159C112.375 272.402 112.778 272.644 113.18 272.644C113.583 272.644 113.986 272.402 113.986 272.159C113.986 271.916 113.583 271.673 113.18 271.673C112.778 271.673 112.375 271.916 112.375 272.159Z" fill="#0B0F07"/>
<path d="M109.757 272.159C109.757 272.402 110.16 272.644 110.562 272.644C110.965 272.644 111.368 272.402 111.368 272.159C111.368 271.916 110.965 271.673 110.562 271.673C110.16 271.673 109.757 271.916 109.757 272.159Z" fill="#0B0F07"/>
<path d="M107.542 272.159C107.542 272.402 107.944 272.644 108.347 272.644C108.75 272.644 109.153 272.402 109.153 272.159C109.153 271.916 108.75 271.673 108.347 271.673C107.944 271.673 107.542 271.916 107.542 272.159Z" fill="#0B0F07"/>
<path d="M135.333 272.159C135.333 272.402 135.736 272.644 136.139 272.644C136.542 272.644 136.944 272.402 136.944 272.159C136.944 271.916 136.542 271.673 136.139 271.673C135.736 271.673 135.333 271.916 135.333 272.159Z" fill="#0B0F07"/>
<path d="M129.493 272.159C129.493 272.402 129.896 272.644 130.298 272.644C130.701 272.644 131.104 272.402 131.104 272.159C131.104 271.916 130.701 271.673 130.298 271.673C129.896 271.673 129.493 271.916 129.493 272.159Z" fill="#0B0F07"/>
<path d="M122.646 272.159C122.646 272.402 123.049 272.644 123.451 272.644C123.854 272.644 124.257 272.402 124.257 272.159C124.257 271.916 123.854 271.673 123.451 271.673C123.049 271.673 122.646 271.916 122.646 272.159Z" fill="#0B0F07"/>
<path d="M120.43 272.159C120.43 272.402 120.833 272.644 121.236 272.644C121.639 272.644 122.042 272.402 122.042 272.159C122.042 271.916 121.639 271.673 121.236 271.673C120.833 271.673 120.43 271.916 120.43 272.159Z" fill="#0B0F07"/>
<path d="M117.41 276.286C117.41 276.529 117.812 276.772 118.215 276.772C118.618 276.772 119.021 276.529 119.021 276.286C119.021 276.044 118.618 275.801 118.215 275.801C117.812 275.801 117.41 276.044 117.41 276.286Z" fill="#0B0F07"/>
<path d="M111.771 276.286C111.771 276.529 112.174 276.772 112.576 276.772C112.979 276.772 113.382 276.529 113.382 276.286C113.382 276.044 112.979 275.801 112.576 275.801C111.972 275.801 111.771 276.044 111.771 276.286Z" fill="#0B0F07"/>
<path d="M108.951 276.286C108.951 276.529 109.354 276.772 109.757 276.772C110.16 276.772 110.563 276.529 110.563 276.286C110.563 276.044 110.16 275.801 109.757 275.801C109.354 275.801 108.951 276.044 108.951 276.286Z" fill="#0B0F07"/>
<path d="M106.736 276.286C106.736 276.529 107.139 276.772 107.542 276.772C107.944 276.772 108.347 276.529 108.347 276.286C108.347 276.044 107.944 275.801 107.542 275.801C107.139 275.801 106.736 276.044 106.736 276.286Z" fill="#0B0F07"/>
<path d="M134.528 276.286C134.528 276.529 134.931 276.772 135.333 276.772C135.736 276.772 136.139 276.529 136.139 276.286C136.139 276.044 135.736 275.801 135.333 275.801C134.931 275.801 134.528 276.044 134.528 276.286Z" fill="#0B0F07"/>
<path d="M128.688 276.286C128.688 276.529 129.09 276.772 129.493 276.772C129.896 276.772 130.299 276.529 130.299 276.286C130.299 276.044 129.896 275.801 129.493 275.801C129.09 275.801 128.688 276.044 128.688 276.286Z" fill="#0B0F07"/>
<path d="M121.639 276.286C121.639 276.529 122.042 276.772 122.444 276.772C122.847 276.772 123.25 276.529 123.25 276.286C123.25 276.044 122.847 275.801 122.444 275.801C122.042 275.801 121.639 276.044 121.639 276.286Z" fill="#0B0F07"/>
<path d="M119.424 276.286C119.424 276.529 119.826 276.772 120.229 276.772C120.632 276.772 121.035 276.529 121.035 276.286C121.035 276.044 120.632 275.801 120.229 275.801C119.826 275.801 119.424 276.044 119.424 276.286Z" fill="#0B0F07"/>
<path d="M171.986 272.644C171.986 272.887 171.583 273.13 171.181 273.13C170.778 273.13 170.375 272.887 170.375 272.644C170.375 272.402 170.778 272.159 171.181 272.159C171.583 272.159 171.986 272.402 171.986 272.644Z" fill="#0B0F07"/>
<path d="M174.403 272.644C174.403 272.887 174 273.13 173.597 273.13C173.194 273.13 172.792 272.887 172.792 272.644C172.792 272.402 173.194 272.159 173.597 272.159C174 272.159 174.403 272.402 174.403 272.644Z" fill="#0B0F07"/>
<path d="M176.819 272.644C176.819 272.887 176.417 273.13 176.014 273.13C175.611 273.13 175.208 272.887 175.208 272.644C175.208 272.402 175.611 272.159 176.014 272.159C176.417 272.159 176.819 272.402 176.819 272.644Z" fill="#0B0F07"/>
<path d="M179.437 272.644C179.437 272.887 179.034 273.13 178.632 273.13C178.229 273.13 177.826 272.887 177.826 272.644C177.826 272.402 178.229 272.159 178.632 272.159C179.034 272.159 179.437 272.402 179.437 272.644Z" fill="#0B0F07"/>
<path d="M154.868 272.644C154.868 272.887 154.465 273.13 154.062 273.13C153.66 273.13 153.257 272.887 153.257 272.644C153.257 272.402 153.66 272.159 154.062 272.159C154.465 272.159 154.868 272.402 154.868 272.644Z" fill="#0B0F07"/>
<path d="M160.507 272.644C160.507 272.887 160.104 273.13 159.701 273.13C159.299 273.13 158.896 272.887 158.896 272.644C158.896 272.402 159.299 272.159 159.701 272.159C160.104 272.159 160.507 272.402 160.507 272.644Z" fill="#0B0F07"/>
<path d="M163.125 272.644C163.125 272.887 162.722 273.13 162.319 273.13C161.916 273.13 161.514 272.887 161.514 272.644C161.514 272.402 161.916 272.159 162.319 272.159C162.923 272.159 163.125 272.402 163.125 272.644Z" fill="#0B0F07"/>
<path d="M165.542 272.644C165.542 272.887 165.139 273.13 164.736 273.13C164.333 273.13 163.93 272.887 163.93 272.644C163.93 272.402 164.333 272.159 164.736 272.159C165.139 272.159 165.542 272.402 165.542 272.644Z" fill="#0B0F07"/>
<path d="M173.194 276.286C173.194 276.529 172.792 276.772 172.389 276.772C171.986 276.772 171.583 276.529 171.583 276.286C171.583 276.044 171.986 275.801 172.389 275.801C172.792 275.801 173.194 276.044 173.194 276.286Z" fill="#0B0F07"/>
<path d="M178.833 276.286C178.833 276.529 178.43 276.772 178.027 276.772C177.625 276.772 177.222 276.529 177.222 276.286C177.222 276.044 177.625 275.801 178.027 275.801C178.43 275.801 178.833 276.044 178.833 276.286Z" fill="#0B0F07"/>
<path d="M181.451 276.286C181.451 276.529 181.048 276.772 180.646 276.772C180.243 276.772 179.84 276.529 179.84 276.286C179.84 276.044 180.243 275.801 180.646 275.801C181.048 275.801 181.451 276.044 181.451 276.286Z" fill="#0B0F07"/>
<path d="M183.868 276.286C183.868 276.529 183.465 276.772 183.062 276.772C182.66 276.772 182.257 276.529 182.257 276.286C182.257 276.044 182.66 275.801 183.062 275.801C183.465 275.801 183.868 276.044 183.868 276.286Z" fill="#0B0F07"/>
<path d="M156.076 276.286C156.076 276.529 155.673 276.772 155.271 276.772C154.868 276.772 154.465 276.529 154.465 276.286C154.465 276.044 154.868 275.801 155.271 275.801C155.673 275.801 156.076 276.044 156.076 276.286Z" fill="#0B0F07"/>
<path d="M161.715 276.286C161.715 276.529 161.312 276.772 160.91 276.772C160.507 276.772 160.104 276.529 160.104 276.286C160.104 276.044 160.507 275.801 160.91 275.801C161.312 275.801 161.715 276.044 161.715 276.286Z" fill="#0B0F07"/>
<path d="M164.333 276.286C164.333 276.529 163.93 276.772 163.527 276.772C163.125 276.772 162.722 276.529 162.722 276.286C162.722 276.044 163.125 275.801 163.527 275.801C163.93 275.801 164.333 276.044 164.333 276.286Z" fill="#0B0F07"/>
<path d="M170.576 276.286C170.576 276.529 170.173 276.772 169.771 276.772C169.368 276.772 168.965 276.529 168.965 276.286C168.965 276.044 169.368 275.801 169.771 275.801C170.173 275.801 170.576 276.044 170.576 276.286Z" fill="#0B0F07"/>
<path d="M195.347 401.083L195.146 400.597V400.354L194.944 399.626L189.104 383.602V383.359C189.104 379.96 172.389 377.289 150.437 376.803L148.826 328.73L148.424 314.648L193.736 314.162L194.542 309.549L184.472 268.76L104.521 268.031L93.8472 309.549L95.4583 315.376L139.965 314.891L139.562 333.1L138.556 377.046C116 377.532 98.2778 380.203 98.2778 383.602V383.844L96.2639 389.914L96.0625 389.672C96.0625 389.914 95.8611 389.914 95.8611 390.157V390.4L92.6389 399.869L92.4375 400.354C92.4375 400.354 92.4375 400.354 92.4375 400.597C92.4375 400.84 92.4375 401.083 92.6389 401.083C92.6389 401.083 92.6389 401.083 92.6389 401.326C92.6389 405.453 115.597 408.61 143.792 408.61C171.986 408.61 195.347 405.21 195.347 401.083Z" fill="url(#paint18_radial_1607_1449)"/>
<path opacity="0.54" d="M121.438 209.518L139.764 286.484C139.764 286.484 140.972 290.368 144.396 290.368C148.021 290.368 149.229 286.484 149.229 286.484L163.729 209.518H121.438Z" fill="url(#paint19_linear_1607_1449)"/>
<path opacity="0.35" d="M127.479 186.21L140.972 286.484H142.583L135.535 187.423L127.479 186.21Z" fill="url(#paint20_linear_1607_1449)"/>
<path opacity="0.35" d="M144.597 183.539L146.208 286.484H147.417L149.632 181.354L144.597 183.539Z" fill="url(#paint21_linear_1607_1449)"/>
<path d="M136.542 226.271L136.34 222.872V218.258L136.542 226.271Z" fill="#00FFFF"/>
<path d="M136.462 218.26L136.26 218.266L136.427 226.276L136.629 226.269L136.462 218.26Z" fill="#00FFFF"/>
<path d="M148.222 252.735L148.424 239.139V236.225L148.625 231.612L148.222 252.735Z" fill="#00FFFF"/>
<path d="M148.499 231.627L148.081 252.744L148.282 252.75L148.701 231.633L148.499 231.627Z" fill="#00FFFF"/>
<path d="M147.892 258.975L147.878 259.703L148.079 259.709L148.094 258.981L147.892 258.975Z" fill="#00FFFF"/>
<path opacity="0.73" d="M116.604 305.907H99.2847L97.875 292.796L117.813 287.941L116.604 305.907Z" fill="url(#paint22_linear_1607_1449)"/>
<path opacity="0.73" d="M171.382 305.907H188.903L189.507 290.611L172.59 289.397L171.382 305.907Z" fill="url(#paint23_linear_1607_1449)"/>
<path d="M100.493 303.237L99.2847 306.393H116.806V303.237H100.493Z" fill="#B9DD89"/>
<path d="M187.896 303.237L189.104 306.393H171.583V303.237H187.896Z" fill="#B9DD89"/>
<path d="M130.5 303.237H123.049V306.15H130.5V303.237Z" fill="#B9DD89"/>
<path d="M136.542 303.237H134.125V306.15H136.542V303.237Z" fill="#B9DD89"/>
<path d="M147.819 303.237H140.368V306.15H147.819V303.237Z" fill="#B9DD89"/>
<path d="M164.333 303.237H154.264V306.15H164.333V303.237Z" fill="#B9DD89"/>
<path opacity="0.73" d="M123.049 306.393L121.639 289.883H130.5V306.393H123.049Z" fill="url(#paint24_linear_1607_1449)"/>
<path opacity="0.73" d="M140.368 306.393L139.16 289.883H148.021V306.393H140.368Z" fill="url(#paint25_linear_1607_1449)"/>
<path opacity="0.73" d="M154.465 306.393L152.854 289.883H164.132V306.393H154.465Z" fill="url(#paint26_linear_1607_1449)"/>
<path opacity="0.73" d="M133.521 306.393L132.917 289.883H136.743V306.393H133.521Z" fill="url(#paint27_linear_1607_1449)"/>
<path d="M65.2501 278.472C65.4514 271.916 63.2362 271.673 62.8334 272.159C62.8334 272.159 62.2292 272.887 61.0209 272.402C58.6042 271.188 58.8056 272.402 57.5973 272.887C56.3889 273.373 55.7848 276.529 55.7848 276.529C55.5834 277.015 55.382 277.743 55.382 278.472C54.3751 278.472 53.5695 279.928 53.5695 281.385C53.5695 282.842 54.3751 284.299 55.382 284.299V290.368L43.0973 310.278L36.6528 344.026L44.507 356.166V400.84V430.704H52.5626L55.9862 395.013L57.5973 379.231H61.0209L60.6181 395.013L60.0139 430.704H69.6806L72.2987 386.758L73.507 366.849L75.9237 355.68L83.3751 349.61L78.7431 310.763L64.8473 290.611V284.541C65.8542 284.541 66.6598 283.085 66.6598 281.628C66.6598 279.928 66.257 278.714 65.2501 278.472Z" fill="url(#paint28_linear_1607_1449)"/>
<defs>
<linearGradient id="paint0_linear_1607_1449" x1="74.6049" y1="153.941" x2="220.374" y2="153.941" gradientUnits="userSpaceOnUse">
<stop offset="0.0351946" stop-color="#4CFAC7"/>
<stop offset="0.0364092" stop-color="#4BF7C5"/>
<stop offset="0.0573942" stop-color="#3BCEA7"/>
<stop offset="0.08011" stop-color="#2DAA8C"/>
<stop offset="0.1057" stop-color="#218A74"/>
<stop offset="0.1339" stop-color="#176E60"/>
<stop offset="0.1658" stop-color="#0E5850"/>
<stop offset="0.2031" stop-color="#084743"/>
<stop offset="0.2492" stop-color="#033C3A"/>
<stop offset="0.3138" stop-color="#013535"/>
<stop offset="0.4932" stop-color="#003334"/>
<stop offset="0.6587" stop-color="#013536"/>
<stop offset="0.7327" stop-color="#043C3B"/>
<stop offset="0.7884" stop-color="#084944"/>
<stop offset="0.8351" stop-color="#0F5B52"/>
<stop offset="0.8761" stop-color="#187363"/>
<stop offset="0.913" stop-color="#238F78"/>
<stop offset="0.947" stop-color="#30B292"/>
<stop offset="0.9776" stop-color="#3FD9AE"/>
<stop offset="1" stop-color="#4CFAC7"/>
</linearGradient>
<linearGradient id="paint1_linear_1607_1449" x1="143.909" y1="413.806" x2="145.004" y2="484.674" gradientUnits="userSpaceOnUse">
<stop stop-color="#0B100C"/>
<stop offset="0.1806" stop-color="#0B100A" stop-opacity="0.8194"/>
<stop offset="1" stop-color="#0B0F07" stop-opacity="0"/>
</linearGradient>
<linearGradient id="paint2_linear_1607_1449" x1="227.916" y1="393.058" x2="79.2968" y2="396.354" gradientUnits="userSpaceOnUse">
<stop stop-color="#0B0F07"/>
<stop offset="0.278" stop-color="#0B100C"/>
<stop offset="1" stop-color="#0B0F07"/>
</linearGradient>
<radialGradient id="paint3_radial_1607_1449" cx="0" cy="0" r="1" gradientUnits="userSpaceOnUse" gradientTransform="translate(143.739 384.094) scale(52.9423 16.4738)">
<stop stop-color="#4CFAC7"/>
<stop offset="1" stop-color="#0E1715"/>
</radialGradient>
<linearGradient id="paint4_linear_1607_1449" x1="144.309" y1="392.163" x2="164.53" y2="423.103" gradientUnits="userSpaceOnUse">
<stop stop-color="#0B100C"/>
<stop offset="1" stop-color="#58633E"/>
</linearGradient>
<radialGradient id="paint5_radial_1607_1449" cx="0" cy="0" r="1" gradientUnits="userSpaceOnUse" gradientTransform="translate(143.701 399.034) scale(53.1232 64.0454)">
<stop stop-color="#0B100C"/>
<stop offset="0.0633948" stop-color="#0B100C"/>
<stop offset="0.7073" stop-color="#0B100C"/>
<stop offset="0.9797" stop-color="#1D1D1B"/>
</radialGradient>
<linearGradient id="paint6_linear_1607_1449" x1="166.679" y1="394.8" x2="210.249" y2="399.395" gradientUnits="userSpaceOnUse">
<stop/>
<stop offset="1" stop-color="#0B0F07"/>
</linearGradient>
<linearGradient id="paint7_linear_1607_1449" x1="170.292" y1="390.603" x2="181.355" y2="396.801" gradientUnits="userSpaceOnUse">
<stop/>
<stop offset="1" stop-color="#0B0F07"/>
</linearGradient>
<linearGradient id="paint8_linear_1607_1449" x1="73.532" y1="416.992" x2="147.574" y2="385.955" gradientUnits="userSpaceOnUse">
<stop stop-color="#0B100C"/>
<stop offset="1" stop-color="#58633E"/>
</linearGradient>
<linearGradient id="paint9_linear_1607_1449" x1="184.305" y1="360.16" x2="128.98" y2="351.031" gradientUnits="userSpaceOnUse">
<stop stop-color="#0B0F07"/>
<stop offset="0.2768" stop-color="#181618"/>
<stop offset="0.7115" stop-color="#28202C"/>
<stop offset="1" stop-color="#2E2334"/>
</linearGradient>
<linearGradient id="paint10_linear_1607_1449" x1="141.521" y1="316.459" x2="151.053" y2="338.161" gradientUnits="userSpaceOnUse">
<stop stop-color="#0B100C"/>
<stop offset="1" stop-color="#58633E"/>
</linearGradient>
<linearGradient id="paint11_linear_1607_1449" x1="145.117" y1="209.834" x2="142.924" y2="344.713" gradientUnits="userSpaceOnUse">
<stop stop-color="#0B0F07"/>
<stop offset="0.2768" stop-color="#181618"/>
<stop offset="0.7115" stop-color="#28202C"/>
<stop offset="1" stop-color="#2E2334"/>
</linearGradient>
<linearGradient id="paint12_linear_1607_1449" x1="104.441" y1="305.387" x2="233.614" y2="322.236" gradientUnits="userSpaceOnUse">
<stop stop-color="#0B100C"/>
<stop offset="1" stop-color="#58633E"/>
</linearGradient>
<linearGradient id="paint13_linear_1607_1449" x1="162.707" y1="287.941" x2="112.221" y2="283.76" gradientUnits="userSpaceOnUse">
<stop stop-color="#0B100C"/>
<stop offset="1" stop-color="#58633E"/>
</linearGradient>
<linearGradient id="paint14_linear_1607_1449" x1="143.711" y1="300.427" x2="143.973" y2="280.048" gradientUnits="userSpaceOnUse">
<stop stop-color="#0B0F07"/>
<stop offset="0.2768" stop-color="#181618"/>
<stop offset="0.7115" stop-color="#28202C"/>
<stop offset="1" stop-color="#2E2334"/>
</linearGradient>
<linearGradient id="paint15_linear_1607_1449" x1="128.989" y1="269.534" x2="151.169" y2="291.578" gradientUnits="userSpaceOnUse">
<stop stop-color="#0B100C"/>
<stop offset="0.278" stop-color="#0B0F19"/>
<stop offset="0.7085" stop-color="#0B0F13"/>
<stop offset="1" stop-color="#0B100C"/>
</linearGradient>
<linearGradient id="paint16_linear_1607_1449" x1="155.561" y1="282.404" x2="146.102" y2="286.264" gradientUnits="userSpaceOnUse">
<stop stop-color="#0B100C"/>
<stop offset="1" stop-color="#58633E"/>
</linearGradient>
<linearGradient id="paint17_linear_1607_1449" x1="162.432" y1="370.562" x2="125.689" y2="349.824" gradientUnits="userSpaceOnUse">
<stop/>
<stop offset="1" stop-color="#0B0F07"/>
</linearGradient>
<radialGradient id="paint18_radial_1607_1449" cx="0" cy="0" r="1" gradientUnits="userSpaceOnUse" gradientTransform="translate(143.654 364.555) rotate(-90) scale(129.566 80.2695)">
<stop stop-color="#0B0F07" stop-opacity="0"/>
<stop offset="0.2488" stop-color="#0C1109" stop-opacity="0.2488"/>
<stop offset="0.3892" stop-color="#0E1A10" stop-opacity="0.3892"/>
<stop offset="0.5026" stop-color="#12271B" stop-opacity="0.5026"/>
<stop offset="0.6016" stop-color="#173B2B" stop-opacity="0.6016"/>
<stop offset="0.6913" stop-color="#1E5540" stop-opacity="0.6913"/>
<stop offset="0.7742" stop-color="#27745A" stop-opacity="0.7742"/>
<stop offset="0.8519" stop-color="#319A78" stop-opacity="0.8519"/>
<stop offset="0.9255" stop-color="#3DC59C" stop-opacity="0.9255"/>
<stop offset="0.9934" stop-color="#4BF5C3" stop-opacity="0.9934"/>
<stop offset="1" stop-color="#4CFAC7"/>
</radialGradient>
<linearGradient id="paint19_linear_1607_1449" x1="141.034" y1="203.032" x2="167.518" y2="283.122" gradientUnits="userSpaceOnUse">
<stop stop-opacity="0"/>
<stop offset="0.0753444" stop-color="#081C16" stop-opacity="0.0753444"/>
<stop offset="0.271" stop-color="#1D5E4B" stop-opacity="0.271"/>
<stop offset="0.4569" stop-color="#2E9677" stop-opacity="0.4569"/>
<stop offset="0.6278" stop-color="#3BC19A" stop-opacity="0.6278"/>
<stop offset="0.7807" stop-color="#44E0B3" stop-opacity="0.7807"/>
<stop offset="0.9099" stop-color="#4AF3C2" stop-opacity="0.9099"/>
<stop offset="1" stop-color="#4CFAC7"/>
</linearGradient>
<linearGradient id="paint20_linear_1607_1449" x1="129.463" y1="186.274" x2="154.295" y2="285.295" gradientUnits="userSpaceOnUse">
<stop stop-opacity="0"/>
<stop offset="0.0473168" stop-color="#030B1B" stop-opacity="0.0473168"/>
<stop offset="0.1473" stop-color="#08214E" stop-opacity="0.1473"/>
<stop offset="0.2519" stop-color="#0C347B" stop-opacity="0.2519"/>
<stop offset="0.3592" stop-color="#1044A1" stop-opacity="0.3592"/>
<stop offset="0.4699" stop-color="#1351C0" stop-opacity="0.4699"/>
<stop offset="0.5849" stop-color="#155BD9" stop-opacity="0.5849"/>
<stop offset="0.7063" stop-color="#1762EA" stop-opacity="0.7063"/>
<stop offset="0.8381" stop-color="#1867F4" stop-opacity="0.8381"/>
<stop offset="1" stop-color="#1868F7"/>
</linearGradient>
<linearGradient id="paint21_linear_1607_1449" x1="136.907" y1="185.623" x2="168.038" y2="279.764" gradientUnits="userSpaceOnUse">
<stop stop-opacity="0"/>
<stop offset="0.0473168" stop-color="#030B1B" stop-opacity="0.0473168"/>
<stop offset="0.1473" stop-color="#08214E" stop-opacity="0.1473"/>
<stop offset="0.2519" stop-color="#0C347B" stop-opacity="0.2519"/>
<stop offset="0.3592" stop-color="#1044A1" stop-opacity="0.3592"/>
<stop offset="0.4699" stop-color="#1351C0" stop-opacity="0.4699"/>
<stop offset="0.5849" stop-color="#155BD9" stop-opacity="0.5849"/>
<stop offset="0.7063" stop-color="#1762EA" stop-opacity="0.7063"/>
<stop offset="0.8381" stop-color="#1867F4" stop-opacity="0.8381"/>
<stop offset="1" stop-color="#1868F7"/>
</linearGradient>
<linearGradient id="paint22_linear_1607_1449" x1="107.867" y1="288.892" x2="107.666" y2="305.389" gradientUnits="userSpaceOnUse">
<stop/>
<stop offset="0.1723" stop-color="#030302"/>
<stop offset="0.3107" stop-color="#0B0D08"/>
<stop offset="0.4374" stop-color="#191E13"/>
<stop offset="0.5571" stop-color="#2D3621"/>
<stop offset="0.672" stop-color="#475535"/>
<stop offset="0.783" stop-color="#677B4C"/>
<stop offset="0.8912" stop-color="#8CA768"/>
<stop offset="0.9945" stop-color="#B7DA87"/>
<stop offset="1" stop-color="#B9DD89"/>
</linearGradient>
<linearGradient id="paint23_linear_1607_1449" x1="180.545" y1="287.485" x2="180.318" y2="306.176" gradientUnits="userSpaceOnUse">
<stop/>
<stop offset="0.1723" stop-color="#030302"/>
<stop offset="0.3107" stop-color="#0B0D08"/>
<stop offset="0.4374" stop-color="#191E13"/>
<stop offset="0.5571" stop-color="#2D3621"/>
<stop offset="0.672" stop-color="#475535"/>
<stop offset="0.783" stop-color="#677B4C"/>
<stop offset="0.8912" stop-color="#8CA768"/>
<stop offset="0.9945" stop-color="#B7DA87"/>
<stop offset="1" stop-color="#B9DD89"/>
</linearGradient>
<linearGradient id="paint24_linear_1607_1449" x1="126.078" y1="285.809" x2="126.078" y2="304.583" gradientUnits="userSpaceOnUse">
<stop/>
<stop offset="0.1723" stop-color="#030302"/>
<stop offset="0.3107" stop-color="#0B0D08"/>
<stop offset="0.4374" stop-color="#191E13"/>
<stop offset="0.5571" stop-color="#2D3621"/>
<stop offset="0.672" stop-color="#475535"/>
<stop offset="0.783" stop-color="#677B4C"/>
<stop offset="0.8912" stop-color="#8CA768"/>
<stop offset="0.9945" stop-color="#B7DA87"/>
<stop offset="1" stop-color="#B9DD89"/>
</linearGradient>
<linearGradient id="paint25_linear_1607_1449" x1="143.556" y1="285.809" x2="143.556" y2="304.583" gradientUnits="userSpaceOnUse">
<stop/>
<stop offset="0.1723" stop-color="#030302"/>
<stop offset="0.3107" stop-color="#0B0D08"/>
<stop offset="0.4374" stop-color="#191E13"/>
<stop offset="0.5571" stop-color="#2D3621"/>
<stop offset="0.672" stop-color="#475535"/>
<stop offset="0.783" stop-color="#677B4C"/>
<stop offset="0.8912" stop-color="#8CA768"/>
<stop offset="0.9945" stop-color="#B7DA87"/>
<stop offset="1" stop-color="#B9DD89"/>
</linearGradient>
<linearGradient id="paint26_linear_1607_1449" x1="158.537" y1="285.809" x2="158.537" y2="304.583" gradientUnits="userSpaceOnUse">
<stop/>
<stop offset="0.1723" stop-color="#030302"/>
<stop offset="0.3107" stop-color="#0B0D08"/>
<stop offset="0.4374" stop-color="#191E13"/>
<stop offset="0.5571" stop-color="#2D3621"/>
<stop offset="0.672" stop-color="#475535"/>
<stop offset="0.783" stop-color="#677B4C"/>
<stop offset="0.8912" stop-color="#8CA768"/>
<stop offset="0.9945" stop-color="#B7DA87"/>
<stop offset="1" stop-color="#B9DD89"/>
</linearGradient>
<linearGradient id="paint27_linear_1607_1449" x1="134.817" y1="285.809" x2="134.817" y2="304.583" gradientUnits="userSpaceOnUse">
<stop/>
<stop offset="0.1723" stop-color="#030302"/>
<stop offset="0.3107" stop-color="#0B0D08"/>
<stop offset="0.4374" stop-color="#191E13"/>
<stop offset="0.5571" stop-color="#2D3621"/>
<stop offset="0.672" stop-color="#475535"/>
<stop offset="0.783" stop-color="#677B4C"/>
<stop offset="0.8912" stop-color="#8CA768"/>
<stop offset="0.9945" stop-color="#B7DA87"/>
<stop offset="1" stop-color="#B9DD89"/>
</linearGradient>
<linearGradient id="paint28_linear_1607_1449" x1="60.0566" y1="426.38" x2="60.0566" y2="232.259" gradientUnits="userSpaceOnUse">
<stop offset="0.3065" stop-color="#001919"/>
<stop offset="0.449" stop-color="#021A1C" stop-opacity="0.7944"/>
<stop offset="0.5513" stop-color="#091E25" stop-opacity="0.647"/>
<stop offset="0.6409" stop-color="#152635" stop-opacity="0.5178"/>
<stop offset="0.7233" stop-color="#262F4B" stop-opacity="0.3989"/>
<stop offset="0.8008" stop-color="#3C3C68" stop-opacity="0.2872"/>
<stop offset="0.8746" stop-color="#574C8B" stop-opacity="0.1808"/>
<stop offset="0.9441" stop-color="#765FB4" stop-opacity="0.0805312"/>
<stop offset="1" stop-color="#9370DB" stop-opacity="0"/>
</linearGradient>
</defs>
</svg>
