<svg width="116" height="116" viewBox="0 0 48 48" fill="none" xmlns="http://www.w3.org/2000/svg">
<path d="M33.8379 19.6806C33.6058 19.1194 33.1081 18.9848 32.7714 18.9526V15.5325C32.7714 14.2641 31.7405 13.2325 30.4729 13.2325H23.5773V11.634C23.9278 11.3189 24.1519 10.8658 24.1519 10.3575C24.1519 9.90001 23.9703 9.46125 23.647 9.13775C23.3237 8.81425 22.8852 8.63251 22.428 8.63251C21.9708 8.63251 21.5323 8.81425 21.209 9.13775C20.8857 9.46125 20.7041 9.90001 20.7041 10.3575C20.7041 10.8658 20.9282 11.3189 21.2787 11.634V13.2325H14.3831C13.1155 13.2325 12.0846 14.2641 12.0846 15.5325V18.9791L11.9903 18.986C11.7007 19.0069 11.4297 19.1367 11.2319 19.3495C11.034 19.5622 10.9239 19.8419 10.9238 20.1325V22.4325C10.9238 22.7375 11.0449 23.03 11.2604 23.2457C11.476 23.4613 11.7683 23.5825 12.0731 23.5825H12.0846V29.3325C12.0846 30.601 13.1155 31.6325 14.3831 31.6325H30.4729C31.7405 31.6325 32.7714 30.601 32.7714 29.3325V23.5825C33.0762 23.5825 33.3685 23.4613 33.584 23.2457C33.7996 23.03 33.9207 22.7375 33.9207 22.4325V20.2038C33.9339 20.0253 33.9056 19.8462 33.8379 19.6806ZM14.3831 29.3325V15.5325H30.4729L30.474 20.1279L30.4729 20.1325V22.4325L30.474 22.4383L30.4752 29.3325H14.3831Z" fill="#F5F5F5"/>
<path d="M19.5 22.6325C20.3284 22.6325 21 21.5132 21 20.1325C21 18.7518 20.3284 17.6325 19.5 17.6325C18.6716 17.6325 18 18.7518 18 20.1325C18 21.5132 18.6716 22.6325 19.5 22.6325Z" fill="#F5F5F5"/>
<path d="M25.5 22.6325C26.3284 22.6325 27 21.5132 27 20.1325C27 18.7518 26.3284 17.6325 25.5 17.6325C24.6716 17.6325 24 18.7518 24 20.1325C24 21.5132 24.6716 22.6325 25.5 22.6325Z" fill="#F5F5F5"/>
<path d="M17.9238 24.6325H26.9238V26.6325H17.9238V24.6325Z" fill="#F5F5F5"/>
</svg>
