<svg width="108" height="118" viewBox="0 0 108 118" fill="none" xmlns="http://www.w3.org/2000/svg">
<g clip-path="url(#clip0_1857_1076)">
<mask id="mask0_1857_1076" style="mask-type:luminance" maskUnits="userSpaceOnUse" x="15" y="49" width="47" height="55">
<path d="M38.5499 49.77C25.7599 49.77 15.3999 61.77 15.3999 76.67C15.3999 91.57 25.7599 103.58 38.5499 103.58H45.4699V102.35C54.8699 98.93 61.6899 88.73 61.6899 76.67C61.6899 64.61 54.8699 54.42 45.4699 51V49.77H38.5499Z" fill="white"/>
</mask>
<g mask="url(#mask0_1857_1076)">
<path d="M61.6799 49.77H15.3999V103.58H61.6799V49.77Z" fill="url(#paint0_linear_1857_1076)"/>
</g>
<mask id="mask1_1857_1076" style="mask-type:luminance" maskUnits="userSpaceOnUse" x="15" y="49" width="47" height="55">
<path d="M15.3999 76.67C15.3999 91.53 25.7599 103.58 38.5399 103.58C51.3199 103.58 61.6899 91.58 61.6899 76.67C61.6899 61.76 51.3299 49.77 38.5399 49.77C25.7499 49.77 15.3999 61.77 15.3999 76.67Z" fill="white"/>
</mask>
<g mask="url(#mask1_1857_1076)">
<path d="M35.5297 52.68H24.4897" stroke="#9999FF" stroke-width="2.3" stroke-miterlimit="10"/>
<path d="M27.6298 60.33H14.5098" stroke="#9999FF" stroke-width="2.3" stroke-miterlimit="10"/>
<path d="M33.2899 98.56H20.1699" stroke="#9999FF" stroke-width="2.3" stroke-miterlimit="10"/>
<path d="M27.6298 83.27H14.5098" stroke="#9999FF" stroke-width="2.3" stroke-miterlimit="10"/>
<path d="M27.6298 75.62H14.5098" stroke="#9999FF" stroke-width="2.3" stroke-miterlimit="10"/>
<path d="M20.2498 67.98H14.5098" stroke="#9999FF" stroke-width="2.3" stroke-miterlimit="10"/>
<path d="M27.63 67.98H20.25" stroke="#9999FF" stroke-width="2.3" stroke-miterlimit="10"/>
<path d="M27.6298 90.91H14.5098" stroke="#9999FF" stroke-width="2.3" stroke-miterlimit="10"/>
</g>
<path d="M22.8601 76.67C22.8601 91.53 33.2301 103.58 46.0101 103.58C58.7901 103.58 69.1501 91.58 69.1501 76.67C69.1501 61.76 58.7901 49.77 46.0001 49.77C33.2101 49.77 22.8501 61.77 22.8501 76.67" fill="url(#paint1_linear_1857_1076)"/>
<mask id="mask2_1857_1076" style="mask-type:luminance" maskUnits="userSpaceOnUse" x="22" y="49" width="48" height="55">
<path d="M22.8601 76.67C22.8601 91.53 33.2301 103.58 46.0101 103.58C58.7901 103.58 69.1501 91.58 69.1501 76.67C69.1501 61.76 58.7901 49.77 46.0001 49.77C33.2101 49.77 22.8501 61.77 22.8501 76.67" fill="white"/>
</mask>
<g mask="url(#mask2_1857_1076)">
<path d="M69.1334 48.7844L21.7241 49.794L22.8905 104.562L70.2997 103.552L69.1334 48.7844Z" fill="url(#paint2_linear_1857_1076)"/>
</g>
<path d="M43.6901 49.9C32.0001 51.25 22.8701 62.72 22.8701 76.67C22.8701 90.62 31.7301 101.75 43.1601 103.37" stroke="url(#paint3_linear_1857_1076)" stroke-width="0.58" stroke-miterlimit="10"/>
<mask id="mask3_1857_1076" style="mask-type:luminance" maskUnits="userSpaceOnUse" x="28" y="54" width="39" height="45">
<path d="M28.2202 76.67C28.2202 88.95 36.7802 98.91 47.3502 98.91C57.9202 98.91 66.4702 89 66.4702 76.67C66.4702 64.34 57.9102 54.44 47.3502 54.44C36.7902 54.44 28.2202 64.44 28.2202 76.67Z" fill="white"/>
</mask>
<g mask="url(#mask3_1857_1076)">
<path d="M66.4702 54.44H28.2202V98.91H66.4702V54.44Z" fill="url(#paint4_linear_1857_1076)"/>
</g>
<path d="M61.5198 74.14L45.1398 69.88H45.0798C44.8719 69.8431 44.6586 69.8497 44.4533 69.8993C44.2481 69.9489 44.0553 70.0405 43.8872 70.1683C43.719 70.296 43.5792 70.4572 43.4763 70.6416C43.3735 70.8261 43.31 71.0298 43.2898 71.24C43.187 71.6743 43.2473 72.1312 43.4594 72.5239C43.6714 72.9166 44.0203 73.2177 44.4398 73.37C45.5658 73.7205 46.5751 74.3711 47.3591 75.2521C48.1432 76.133 48.6723 77.2109 48.8898 78.37C49.1617 79.4801 49.1992 80.6346 48.9998 81.76C48.3098 85.57 45.1498 87.99 41.9998 87.16L35.5198 85.48C35.3123 85.4415 35.099 85.447 34.8937 85.4961C34.6884 85.5451 34.4956 85.6367 34.3279 85.7649C34.1602 85.893 34.0212 86.0549 33.9199 86.2401C33.8186 86.4253 33.7572 86.6296 33.7398 86.84C33.6211 87.2674 33.6635 87.7234 33.8589 88.1216C34.0543 88.5198 34.3892 88.8324 34.7998 89L41.2798 90.69C46.0898 91.94 50.8398 88.29 51.8898 82.55C51.8947 82.5202 51.8947 82.4898 51.8898 82.46C52.1857 80.8022 52.1449 79.1017 51.7698 77.46C51.6055 76.63 51.3472 75.8215 50.9998 75.05L60.9298 77.63C61.1374 77.6685 61.3507 77.663 61.556 77.6139C61.7613 77.5649 61.954 77.4733 62.1217 77.3451C62.2894 77.217 62.4284 77.0551 62.5297 76.8699C62.631 76.6847 62.6924 76.4804 62.7098 76.27C62.8155 75.8369 62.7575 75.38 62.5472 74.987C62.3368 74.5939 61.9888 74.2923 61.5698 74.14H61.5198Z" fill="#52B447"/>
<path d="M42.4499 82.24C42.6575 82.2785 42.8708 82.273 43.0761 82.2239C43.2814 82.1749 43.4741 82.0833 43.6418 81.9551C43.8096 81.827 43.9486 81.6651 44.0499 81.4799C44.1511 81.2947 44.2125 81.0904 44.2299 80.88C44.3356 80.4469 44.2777 79.99 44.0673 79.597C43.8569 79.2039 43.5089 78.9023 43.0899 78.75C41.9631 78.3991 40.9529 77.7485 40.1673 76.8678C39.3817 75.9871 38.8503 74.9094 38.6299 73.75C38.3816 72.646 38.3578 71.5034 38.5599 70.39C39.2599 66.59 42.4199 64.17 45.5599 64.99L52.0399 66.68C52.2481 66.7169 52.4616 66.71 52.6669 66.6597C52.8722 66.6094 53.0648 66.5168 53.2323 66.3879C53.3998 66.2589 53.5386 66.0965 53.6398 65.9109C53.741 65.7253 53.8023 65.5206 53.8199 65.31C53.9228 64.8783 53.8636 64.4239 53.6534 64.033C53.4432 63.6422 53.0968 63.3422 52.6799 63.19L46.1899 61.5C41.3899 60.25 36.6399 63.9 35.5899 69.63C35.5899 69.63 35.5899 69.69 35.5899 69.72C35.3038 71.379 35.348 73.0781 35.7199 74.72C36.5899 78.56 39.1599 81.48 42.4199 82.32" fill="#4CFAC7"/>
<path d="M64.8098 76.67C64.7875 76.8802 64.7216 77.0834 64.6163 77.2667C64.511 77.45 64.3687 77.6093 64.1983 77.7345C64.028 77.8596 63.8334 77.9479 63.6271 77.9936C63.4207 78.0393 63.207 78.0415 62.9998 78L53.0998 75.45C52.5631 74.2174 51.7645 73.1165 50.7595 72.2237C49.7544 71.3309 48.567 70.6676 47.2798 70.28L63.6598 74.54C64.0788 74.6923 64.4268 74.9939 64.6372 75.387C64.8475 75.78 64.9054 76.2369 64.7998 76.67H64.8098Z" fill="white"/>
<path d="M46.3799 81.29C46.361 81.4998 46.2987 81.7033 46.1969 81.8877C46.0952 82.0722 45.9562 82.2334 45.7889 82.3613C45.6215 82.4892 45.4294 82.5809 45.2247 82.6306C45.02 82.6803 44.8073 82.6869 44.5999 82.65C41.3399 81.8 38.7699 78.89 37.8899 75.05C37.5162 73.4081 37.4754 71.7079 37.7699 70.05C37.7699 70.05 37.7699 69.99 37.7699 69.96C38.7699 64.23 43.5799 60.58 48.3799 61.83C48.8097 61.9809 49.1674 62.2875 49.3822 62.6893C49.5969 63.091 49.6532 63.5587 49.5399 64C49.5197 64.2102 49.4562 64.4139 49.3533 64.5984C49.2505 64.7828 49.1107 64.944 48.9425 65.0717C48.7744 65.1995 48.5816 65.2911 48.3764 65.3407C48.1711 65.3903 47.9578 65.3969 47.7499 65.36C44.5699 64.54 41.4099 66.96 40.7499 70.76C40.5477 71.8734 40.5716 73.016 40.8199 74.12C41.0374 75.2791 41.5665 76.357 42.3506 77.2379C43.1346 78.1189 44.1439 78.7695 45.2699 79.12C45.6894 79.2723 46.0383 79.5734 46.2503 79.9661C46.4623 80.3588 46.5227 80.8157 46.4199 81.25" fill="white"/>
<path d="M55.9998 65.67C55.9768 65.8751 55.9122 66.0734 55.8101 66.2528C55.7079 66.4322 55.5703 66.5888 55.4056 66.7133C55.241 66.8377 55.0527 66.9273 54.8522 66.9766C54.6518 67.0259 54.4434 67.0339 54.2398 67L47.7598 65.31C47.9634 65.3469 48.1723 65.3419 48.3739 65.2953C48.5755 65.2486 48.7655 65.1613 48.9321 65.0386C49.0987 64.916 49.2386 64.7606 49.3431 64.582C49.4476 64.4034 49.5145 64.2054 49.5398 64C49.6426 63.5657 49.5822 63.1088 49.3702 62.7161C49.1582 62.3234 48.8093 62.0223 48.3898 61.87L54.8698 63.56C55.2827 63.7139 55.6253 64.0131 55.8333 64.4016C56.0414 64.79 56.1005 65.241 55.9998 65.67Z" fill="white"/>
<path d="M49.5402 64C49.5213 64.2111 49.4587 64.4159 49.3564 64.6015C49.2542 64.7872 49.1145 64.9495 48.9462 65.0783C48.7779 65.2071 48.5847 65.2995 48.3788 65.3498C48.173 65.4 47.9589 65.4069 47.7502 65.37C44.5702 64.54 41.4102 66.96 40.7502 70.77C40.7313 70.9798 40.669 71.1833 40.5672 71.3677C40.4655 71.5522 40.3265 71.7134 40.1592 71.8413C39.9918 71.9692 39.7997 72.0609 39.595 72.1106C39.3903 72.1603 39.1776 72.1669 38.9702 72.13C38.5728 71.9859 38.2387 71.7066 38.0266 71.3409C37.8145 70.9752 37.7379 70.5465 37.8102 70.13C37.8102 70.13 37.8102 70.07 37.8102 70.04C38.8102 64.31 43.6202 60.66 48.4202 61.91C48.8258 62.067 49.1618 62.3642 49.3673 62.7476C49.5727 63.131 49.6341 63.5753 49.5402 64Z" fill="white"/>
<path d="M54.0498 82.84C54.1201 82.4237 54.0426 81.9959 53.8307 81.6306C53.6189 81.2654 53.2861 80.9857 52.8898 80.84C52.6818 80.8047 52.4688 80.8127 52.2641 80.8636C52.0594 80.9146 51.8675 81.0073 51.7003 81.1359C51.5332 81.2646 51.3944 81.4264 51.2928 81.6112C51.1912 81.7961 51.1289 81.9999 51.1098 82.21C51.3043 81.0809 51.2668 79.9241 50.9998 78.81C50.7794 77.6506 50.248 76.5729 49.4624 75.6922C48.6768 74.8115 47.6666 74.1609 46.5398 73.81C46.1216 73.6597 45.7738 73.36 45.5633 72.9686C45.3528 72.5772 45.2946 72.1218 45.3998 71.69C45.4159 71.4788 45.4763 71.2733 45.577 71.0869C45.6777 70.9006 45.8166 70.7375 45.9844 70.6083C46.1523 70.479 46.3455 70.3866 46.5514 70.3369C46.7574 70.2873 46.9715 70.2815 47.1798 70.32H47.2398C48.5279 70.7033 49.716 71.3651 50.72 72.2586C51.724 73.152 52.5194 74.2551 53.0498 75.49C53.4185 76.2621 53.697 77.0741 53.8798 77.91C54.2549 79.5517 54.2957 81.2522 53.9998 82.91L54.0498 82.84Z" fill="white"/>
<path d="M35.7998 87.25C35.8187 87.0389 35.8813 86.8341 35.9836 86.6485C36.0858 86.4628 36.2255 86.3005 36.3938 86.1717C36.5621 86.0429 36.7553 85.9505 36.9612 85.9002C37.167 85.85 37.3811 85.8431 37.5898 85.88L44.0698 87.57C43.8619 87.5331 43.6486 87.5397 43.4433 87.5893C43.2381 87.6389 43.0453 87.7305 42.8772 87.8583C42.709 87.986 42.5692 88.1472 42.4663 88.3316C42.3635 88.5161 42.3 88.7198 42.2798 88.93C42.177 89.3643 42.2373 89.8212 42.4494 90.2139C42.6614 90.6066 43.0103 90.9077 43.4298 91.06L36.9998 89.37C36.5811 89.2197 36.2324 88.9205 36.0203 88.5294C35.8081 88.1384 35.7475 87.6829 35.8498 87.25" fill="white"/>
<path d="M54.0002 82.93C53.0002 88.66 48.2002 92.31 43.4002 91.06C42.9815 90.9097 42.6328 90.6105 42.4207 90.2194C42.2085 89.8284 42.1479 89.3729 42.2502 88.94C42.2678 88.7294 42.3292 88.5247 42.4304 88.3391C42.5315 88.1535 42.6703 87.9911 42.8378 87.8621C43.0053 87.7332 43.1979 87.6406 43.4032 87.5903C43.6085 87.54 43.8221 87.5331 44.0302 87.57C47.2202 88.4 50.3802 85.98 51.0302 82.17C51.0463 81.9588 51.1067 81.7533 51.2074 81.5669C51.3082 81.3805 51.447 81.2175 51.6148 81.0882C51.7827 80.959 51.9759 80.8666 52.1819 80.8169C52.3878 80.7673 52.6019 80.7615 52.8102 80.8C53.21 80.9407 53.5465 81.2194 53.7591 81.586C53.9718 81.9526 54.0466 82.3831 53.9702 82.8C53.9702 82.8 53.9702 82.86 53.9702 82.89L54.0002 82.93Z" fill="white"/>
<mask id="mask4_1857_1076" style="mask-type:luminance" maskUnits="userSpaceOnUse" x="28" y="54" width="38" height="39">
<path d="M32.2702 71.87C32.2702 63.93 37.8202 57.48 44.6402 57.48H53.8502C54.4309 57.5638 54.962 57.854 55.3462 58.2976C55.7303 58.7411 55.9418 59.3082 55.9418 59.895C55.9418 60.4818 55.7303 61.0489 55.3462 61.4924C54.962 61.936 54.4309 62.2262 53.8502 62.31H44.6402C40.1202 62.31 36.4302 66.6 36.4302 71.87C36.4231 73.3884 36.7366 74.8911 37.3502 76.28C37.9356 77.7545 38.9376 79.0266 40.2339 79.9412C41.5302 80.8557 43.0648 81.373 44.6502 81.43C45.2309 81.5138 45.7621 81.804 46.1462 82.2476C46.5303 82.6911 46.7418 83.2582 46.7418 83.845C46.7418 84.4318 46.5303 84.9989 46.1462 85.4424C45.7621 85.886 45.2309 86.1762 44.6502 86.26C40.0102 86.26 35.8102 83.26 33.6502 78.51C32.7482 76.4577 32.2785 74.2417 32.2702 72V71.87ZM28.2202 76.67C28.1445 82.6622 30.3133 88.4659 34.3002 92.94H45.1402C49.6702 92.94 53.3602 88.65 53.3602 83.38C53.3644 81.8706 53.0474 80.3775 52.4302 79C51.8472 77.5267 50.8468 76.2556 49.5519 75.3426C48.257 74.4295 46.7237 73.9143 45.1402 73.86C44.5638 73.769 44.0388 73.4752 43.6598 73.0315C43.2807 72.5879 43.0724 72.0235 43.0724 71.44C43.0724 70.8565 43.2807 70.2921 43.6598 69.8485C44.0388 69.4048 44.5638 69.111 45.1402 69.02H65.2702C62.5902 60.56 55.6202 54.52 47.4202 54.47H47.3402C36.7802 54.47 28.2202 64.47 28.2202 76.7" fill="white"/>
</mask>
<g mask="url(#mask4_1857_1076)">
<path d="M65.2702 54.44H28.2202V92.94H65.2702V54.44Z" fill="url(#paint5_linear_1857_1076)"/>
</g>
<mask id="mask5_1857_1076" style="mask-type:luminance" maskUnits="userSpaceOnUse" x="41" y="73" width="26" height="26">
<path d="M54.3901 73.83C55.0721 74.7315 55.6491 75.7078 56.1101 76.74C57.0122 78.7961 57.4852 81.0147 57.5001 83.26V83.39C57.5001 91.16 52.1601 97.52 45.5001 97.76H41.3101C42.9441 98.3973 44.6688 98.772 46.4201 98.87H46.6201H47.3401C57.9001 98.87 66.4501 88.87 66.4501 76.63C66.4524 75.681 66.399 74.7327 66.2901 73.79L54.3901 73.83Z" fill="white"/>
</mask>
<g mask="url(#mask5_1857_1076)">
<path d="M66.4501 73.83H41.3101V98.91H66.4501V73.83Z" fill="url(#paint6_linear_1857_1076)"/>
</g>
<mask id="mask6_1857_1076" style="mask-type:luminance" maskUnits="userSpaceOnUse" x="28" y="54" width="39" height="45">
<path d="M28.2202 76.67C28.2202 88.95 36.7802 98.91 47.3502 98.91C57.9202 98.91 66.4702 89 66.4702 76.67C66.4702 64.34 57.9102 54.44 47.3502 54.44C36.7902 54.44 28.2202 64.44 28.2202 76.67Z" fill="white"/>
</mask>
<g mask="url(#mask6_1857_1076)">
<path d="M67.1698 69H43.8498C43.2734 69.091 42.7485 69.3848 42.3694 69.8285C41.9903 70.2721 41.7821 70.8365 41.7821 71.42C41.7821 72.0035 41.9903 72.5679 42.3694 73.0115C42.7485 73.4552 43.2734 73.749 43.8498 73.84C45.4346 73.8953 46.9684 74.4134 48.2621 75.3304C49.5558 76.2473 50.5527 77.523 51.1298 79C51.7474 80.3844 52.0644 81.8841 52.0598 83.4C52.0598 88.67 48.3798 92.96 43.8598 92.96H34.6698C34.0934 93.051 33.5685 93.3448 33.1894 93.7885C32.8103 94.2321 32.6021 94.7965 32.6021 95.38C32.6021 95.9635 32.8103 96.5279 33.1894 96.9715C33.5685 97.4152 34.0934 97.709 34.6698 97.8H43.8598C50.6698 97.8 56.2098 91.34 56.2098 83.41V83.28C56.1938 81.0348 55.7209 78.8165 54.8198 76.76C54.3566 75.729 53.7797 74.7529 53.0998 73.85H67.1798C67.7606 73.7662 68.2917 73.476 68.6758 73.0324C69.06 72.5889 69.2714 72.0218 69.2714 71.435C69.2714 70.8482 69.06 70.2811 68.6758 69.8376C68.2917 69.394 67.7606 69.1038 67.1798 69.02L67.1698 69Z" fill="#009099"/>
<path d="M43.35 86.26C43.9264 86.169 44.4514 85.8752 44.8304 85.4315C45.2095 84.9879 45.4178 84.4235 45.4178 83.84C45.4178 83.2565 45.2095 82.6921 44.8304 82.2485C44.4514 81.8048 43.9264 81.511 43.35 81.42C41.7682 81.3638 40.2371 80.8477 38.9441 79.9347C37.6511 79.0218 36.6523 77.7518 36.07 76.28C35.4565 74.8911 35.143 73.3884 35.15 71.87C35.15 66.6 38.83 62.31 43.35 62.31H52.54C53.1208 62.2262 53.6519 61.936 54.036 61.4924C54.4202 61.0489 54.6316 60.4818 54.6316 59.895C54.6316 59.3082 54.4202 58.7411 54.036 58.2976C53.6519 57.854 53.1208 57.5638 52.54 57.48H43.35C36.54 57.48 31 63.93 31 71.87V72C31.0051 74.2463 31.4785 76.4669 32.39 78.52C34.53 83.3 38.73 86.27 43.39 86.27L43.35 86.26Z" fill="#009099"/>
<path d="M68.4398 69H45.1298C44.5535 69.091 44.0285 69.3848 43.6494 69.8285C43.2703 70.2721 43.0621 70.8365 43.0621 71.42C43.0621 72.0035 43.2703 72.5679 43.6494 73.0115C44.0285 73.4552 44.5535 73.749 45.1298 73.84C46.7129 73.8972 48.2446 74.4162 49.5363 75.3331C50.8281 76.2499 51.8234 77.5245 52.3998 79C53.0222 80.3829 53.3394 81.8836 53.3298 83.4C53.3298 88.67 49.6498 92.96 45.1298 92.96H35.9398C35.3635 93.051 34.8385 93.3448 34.4594 93.7885C34.0803 94.2321 33.8721 94.7965 33.8721 95.38C33.8721 95.9635 34.0803 96.5279 34.4594 96.9715C34.8385 97.4152 35.3635 97.709 35.9398 97.8H45.1298C51.9398 97.8 57.4798 91.34 57.4798 83.41V83.28C57.4689 81.0343 56.9958 78.8149 56.0898 76.76C55.6266 75.729 55.0497 74.7529 54.3698 73.85H68.4498C69.0306 73.7662 69.5617 73.476 69.9459 73.0324C70.33 72.5889 70.5415 72.0218 70.5415 71.435C70.5415 70.8482 70.33 70.2811 69.9459 69.8376C69.5617 69.394 69.0306 69.1038 68.4498 69.02L68.4398 69Z" fill="white"/>
<path d="M44.63 86.26C45.2064 86.169 45.7314 85.8752 46.1104 85.4315C46.4895 84.9879 46.6978 84.4235 46.6978 83.84C46.6978 83.2565 46.4895 82.6921 46.1104 82.2485C45.7314 81.8048 45.2064 81.511 44.63 81.42C43.0479 81.3651 41.5162 80.8494 40.223 79.9363C38.9298 79.0233 37.9313 77.7525 37.35 76.28C36.7333 74.8918 36.4164 73.389 36.42 71.87C36.42 66.6 40.1 62.31 44.62 62.31H53.81C54.3908 62.2262 54.9219 61.936 55.306 61.4924C55.6902 61.0489 55.9016 60.4818 55.9016 59.895C55.9016 59.3082 55.6902 58.7411 55.306 58.2976C54.9219 57.854 54.3908 57.5638 53.81 57.48H44.62C37.81 57.48 32.27 63.93 32.27 71.87V72C32.2849 74.2453 32.7579 76.4639 33.66 78.52C35.8 83.3 40 86.27 44.66 86.27L44.63 86.26Z" fill="white"/>
</g>
<path d="M47.3499 54.44H46.9199C56.8399 54.7 64.8099 64.55 64.8099 76.66C64.8099 88.77 56.8099 98.66 46.9199 98.89H47.3499C57.9099 98.89 66.4699 88.89 66.4699 76.65C66.4699 64.41 57.9099 54.43 47.3499 54.43V54.44Z" fill="#4CFAC7"/>
<mask id="mask7_1857_1076" style="mask-type:luminance" maskUnits="userSpaceOnUse" x="22" y="49" width="48" height="55">
<path d="M22.8601 76.78C22.8601 91.62 33.2301 103.66 46.0101 103.66C58.7901 103.66 69.1501 91.66 69.1501 76.78C69.1501 61.9 58.7901 49.9 46.0001 49.9C33.2101 49.9 22.8501 61.9 22.8501 76.78" fill="white"/>
</mask>
<g mask="url(#mask7_1857_1076)">
<g opacity="0.63">
<mask id="mask8_1857_1076" style="mask-type:luminance" maskUnits="userSpaceOnUse" x="0" y="36" width="49" height="69">
<path d="M48.63 36.23H0.0200195V104.22H48.63V36.23Z" fill="white"/>
</mask>
<g mask="url(#mask8_1857_1076)">
<path d="M0.0200195 90.95L48.24 36.23L48.63 46.27L19.8 104.22L0.0200195 90.95Z" fill="white"/>
</g>
</g>
<g opacity="0.63">
<mask id="mask9_1857_1076" style="mask-type:luminance" maskUnits="userSpaceOnUse" x="25" y="49" width="33" height="61">
<path d="M57.1798 49.59H25.8398V109.22H57.1798V49.59Z" fill="white"/>
</mask>
<g mask="url(#mask9_1857_1076)">
<path d="M25.8398 107.54L54.6698 49.59L57.1798 51.28L28.3498 109.22L25.8398 107.54Z" fill="white"/>
</g>
</g>
</g>
<path d="M16.6801 71.25C16.764 71.2641 16.8402 71.3076 16.8952 71.3725C16.9501 71.4375 16.9803 71.5199 16.9803 71.605C16.9803 71.6901 16.9501 71.7725 16.8952 71.8375C16.8402 71.9025 16.764 71.9459 16.6801 71.96C16.5962 71.9459 16.52 71.9025 16.465 71.8375C16.41 71.7725 16.3799 71.6901 16.3799 71.605C16.3799 71.5199 16.41 71.4375 16.465 71.3725C16.52 71.3076 16.5962 71.2641 16.6801 71.25Z" fill="#ABFDE5"/>
<path d="M12.0499 59.36C12.1187 59.362 12.1854 59.3842 12.2416 59.4238C12.2978 59.4634 12.3411 59.5187 12.3661 59.5828C12.391 59.6469 12.3966 59.717 12.382 59.7842C12.3673 59.8514 12.3332 59.9129 12.2839 59.9608C12.2346 60.0088 12.1722 60.0411 12.1046 60.0538C12.037 60.0665 11.9672 60.0591 11.9038 60.0323C11.8404 60.0055 11.7863 59.9607 11.7483 59.9034C11.7103 59.8461 11.69 59.7788 11.6899 59.71C11.6899 59.6632 11.6993 59.6168 11.7175 59.5737C11.7357 59.5306 11.7624 59.4915 11.796 59.4589C11.8295 59.4263 11.8693 59.4007 11.9129 59.3837C11.9566 59.3667 12.0031 59.3587 12.0499 59.36Z" fill="#ABFDE5"/>
<path d="M7.78996 49.93C7.85523 49.93 7.91903 49.9494 7.9733 49.9856C8.02757 50.0219 8.06986 50.0734 8.09484 50.1337C8.11982 50.194 8.12635 50.2604 8.11362 50.3244C8.10089 50.3884 8.06946 50.4472 8.02331 50.4933C7.97715 50.5395 7.91835 50.5709 7.85434 50.5837C7.79033 50.5964 7.72397 50.5899 7.66368 50.5649C7.60338 50.5399 7.55184 50.4976 7.51558 50.4433C7.47932 50.3891 7.45996 50.3253 7.45996 50.26C7.45996 50.1725 7.49473 50.0885 7.55662 50.0267C7.6185 49.9648 7.70244 49.93 7.78996 49.93Z" fill="#ABFDE5"/>
<path d="M5.99992 65.4C6.08385 65.4141 6.16005 65.4575 6.21501 65.5225C6.26997 65.5875 6.30012 65.6699 6.30012 65.755C6.30012 65.8401 6.26997 65.9225 6.21501 65.9875C6.16005 66.0524 6.08385 66.0959 5.99992 66.11C5.91599 66.0959 5.83978 66.0524 5.78482 65.9875C5.72986 65.9225 5.69971 65.8401 5.69971 65.755C5.69971 65.6699 5.72986 65.5875 5.78482 65.5225C5.83978 65.4575 5.91599 65.4141 5.99992 65.4Z" fill="#ABFDE5"/>
<path d="M5.82013 74C5.84555 73.9998 5.87072 74.0051 5.89397 74.0153C5.91722 74.0256 5.93804 74.0407 5.95504 74.0596C5.97205 74.0785 5.98486 74.1008 5.99263 74.125C6.0004 74.1492 6.00296 74.1747 6.00013 74.2C6.00017 74.2232 5.99547 74.2461 5.98631 74.2674C5.97714 74.2888 5.96372 74.308 5.94686 74.3239C5.93 74.3398 5.91006 74.3521 5.88826 74.36C5.86647 74.368 5.84328 74.3714 5.82013 74.37C5.79743 74.3715 5.77467 74.3681 5.75338 74.3601C5.73209 74.352 5.71275 74.3396 5.69666 74.3235C5.68057 74.3074 5.6681 74.288 5.66008 74.2668C5.65205 74.2455 5.64866 74.2227 5.65013 74.2C5.6457 74.1753 5.64679 74.1499 5.65333 74.1257C5.65986 74.1015 5.67168 74.079 5.68793 74.0599C5.70418 74.0408 5.72446 74.0255 5.74732 74.0151C5.77018 74.0048 5.79504 73.9996 5.82013 74Z" fill="#ABFDE5"/>
<path d="M8.50976 79.64C8.60754 79.642 8.70121 79.6797 8.77307 79.746C8.84493 79.8123 8.89 79.9027 8.89976 80C8.89976 80.1034 8.85867 80.2026 8.78554 80.2758C8.7124 80.3489 8.6132 80.39 8.50976 80.39C8.45817 80.3914 8.40684 80.3822 8.3589 80.3631C8.31097 80.344 8.26742 80.3153 8.23093 80.2788C8.19444 80.2423 8.16576 80.1988 8.14665 80.1509C8.12753 80.1029 8.11839 80.0516 8.11976 80C8.11976 79.8966 8.16085 79.7974 8.23399 79.7242C8.30713 79.6511 8.40633 79.61 8.50976 79.61" fill="#ABFDE5"/>
<path d="M35.0799 92.32C35.1586 92.322 35.2349 92.3471 35.2994 92.3922C35.3638 92.4374 35.4135 92.5005 35.4423 92.5737C35.471 92.647 35.4775 92.7271 35.461 92.804C35.4444 92.8809 35.4056 92.9512 35.3493 93.0062C35.2929 93.0611 35.2217 93.0983 35.1444 93.1129C35.067 93.1275 34.9871 93.1191 34.9146 93.0885C34.8421 93.058 34.7802 93.0067 34.7367 92.9412C34.6932 92.8756 34.6699 92.7987 34.6699 92.72C34.6699 92.6666 34.6806 92.6138 34.7013 92.5646C34.722 92.5154 34.7524 92.4708 34.7906 92.4336C34.8288 92.3963 34.8741 92.367 34.9238 92.3475C34.9735 92.328 35.0266 92.3187 35.0799 92.32Z" fill="#ABFDE5"/>
<path d="M47.4099 104.94C47.4574 104.94 47.5038 104.954 47.5433 104.98C47.5827 105.007 47.6135 105.044 47.6317 105.088C47.6498 105.132 47.6546 105.18 47.6453 105.227C47.6361 105.273 47.6132 105.316 47.5796 105.35C47.5461 105.383 47.5033 105.406 47.4567 105.415C47.4102 105.425 47.3619 105.42 47.3181 105.402C47.2742 105.384 47.2367 105.353 47.2104 105.313C47.184 105.274 47.1699 105.227 47.1699 105.18C47.1699 105.116 47.1952 105.055 47.2402 105.01C47.2852 104.965 47.3463 104.94 47.4099 104.94Z" fill="#ABFDE5"/>
<path d="M62.8498 105.92C62.7809 105.92 62.7148 105.947 62.666 105.996C62.6172 106.045 62.5898 106.111 62.5898 106.18C62.6016 106.239 62.6334 106.292 62.6799 106.33C62.7264 106.368 62.7847 106.389 62.8448 106.389C62.905 106.389 62.9633 106.368 63.0098 106.33C63.0563 106.292 63.0881 106.239 63.0998 106.18C63.0999 106.113 63.0739 106.048 63.0273 106C62.9806 105.951 62.9171 105.923 62.8498 105.92Z" fill="#ABFDE5"/>
<path d="M51.7102 112.68C51.7897 112.68 51.866 112.712 51.9223 112.768C51.9785 112.824 52.0102 112.9 52.0102 112.98C52.0102 113.06 51.9785 113.136 51.9223 113.192C51.866 113.248 51.7897 113.28 51.7102 113.28C51.6306 113.28 51.5543 113.248 51.498 113.192C51.4418 113.136 51.4102 113.06 51.4102 112.98C51.4102 112.9 51.4418 112.824 51.498 112.768C51.5543 112.712 51.6306 112.68 51.7102 112.68Z" fill="#ABFDE5"/>
<path d="M48.05 113.28C48.1319 113.278 48.2125 113.301 48.2815 113.345C48.3504 113.389 48.4045 113.453 48.4368 113.528C48.469 113.604 48.478 113.687 48.4625 113.767C48.447 113.848 48.4078 113.922 48.3498 113.98C48.2919 114.038 48.2179 114.077 48.1375 114.092C48.057 114.108 47.9738 114.099 47.8984 114.067C47.8231 114.034 47.7592 113.98 47.7149 113.911C47.6707 113.843 47.648 113.762 47.65 113.68C47.65 113.574 47.6922 113.472 47.7672 113.397C47.8422 113.322 47.9439 113.28 48.05 113.28Z" fill="#ABFDE5"/>
<path d="M5.13997 111.67C5.21399 111.655 5.29038 111.657 5.36364 111.675C5.43691 111.693 5.50521 111.728 5.56361 111.775C5.62202 111.823 5.66908 111.883 5.70139 111.952C5.73371 112.02 5.75047 112.094 5.75047 112.17C5.75047 112.245 5.73371 112.32 5.70139 112.388C5.66908 112.457 5.62202 112.517 5.56361 112.565C5.50521 112.612 5.43691 112.647 5.36364 112.665C5.29038 112.683 5.21399 112.685 5.13997 112.67C5.02446 112.647 4.92056 112.584 4.84591 112.493C4.77126 112.402 4.73047 112.288 4.73047 112.17C4.73047 112.052 4.77126 111.938 4.84591 111.847C4.92056 111.756 5.02446 111.693 5.13997 111.67Z" fill="#ABFDE5"/>
<path d="M0.449978 88C0.515385 87.9903 0.582119 87.9948 0.645632 88.0132C0.709145 88.0316 0.767945 88.0635 0.818022 88.1066C0.8681 88.1498 0.908278 88.2033 0.935819 88.2634C0.963361 88.3235 0.977617 88.3889 0.977617 88.455C0.977617 88.5211 0.963361 88.5865 0.935819 88.6466C0.908278 88.7067 0.8681 88.7602 0.818022 88.8034C0.767945 88.8465 0.709145 88.8784 0.645632 88.8968C0.582119 88.9152 0.515385 88.9197 0.449978 88.91C0.340898 88.8938 0.241272 88.8389 0.169254 88.7554C0.0972355 88.6719 0.0576172 88.5653 0.0576172 88.455C0.0576172 88.3447 0.0972355 88.2381 0.169254 88.1546C0.241272 88.0711 0.340898 88.0162 0.449978 88Z" fill="#ABFDE5"/>
<path d="M60.5401 68.27C60.4295 68.1562 60.3677 68.0037 60.3677 67.845C60.3677 67.6863 60.4295 67.5338 60.5401 67.42C60.596 67.3625 60.6629 67.3169 60.7367 67.2857C60.8106 67.2545 60.8899 67.2384 60.9701 67.2384C61.0503 67.2384 61.1296 67.2545 61.2035 67.2857C61.2773 67.3169 61.3442 67.3625 61.4001 67.42C61.5107 67.5338 61.5725 67.6863 61.5725 67.845C61.5725 68.0037 61.5107 68.1562 61.4001 68.27C61.3442 68.3275 61.2773 68.3731 61.2035 68.4043C61.1296 68.4355 61.0503 68.4516 60.9701 68.4516C60.8899 68.4516 60.8106 68.4355 60.7367 68.4043C60.6629 68.3731 60.596 68.3275 60.5401 68.27Z" fill="#ABFDE5"/>
<path d="M44.19 86.38C44.0998 86.2908 44.0381 86.1768 44.0128 86.0524C43.9876 85.9281 43.9998 85.799 44.048 85.6817C44.0963 85.5643 44.1783 85.4639 44.2837 85.3933C44.3891 85.3226 44.5131 85.2849 44.64 85.2849C44.7669 85.2849 44.8909 85.3226 44.9963 85.3933C45.1017 85.4639 45.1837 85.5643 45.232 85.6817C45.2802 85.799 45.2924 85.9281 45.2672 86.0524C45.2419 86.1768 45.1802 86.2908 45.09 86.38C45.0313 86.4399 44.9613 86.4874 44.8841 86.5199C44.8068 86.5524 44.7238 86.5691 44.64 86.5691C44.5562 86.5691 44.4732 86.5524 44.3959 86.5199C44.3187 86.4874 44.2487 86.4399 44.19 86.38Z" fill="#ABFDE5"/>
<path d="M31.6099 68.14C31.5718 68.1019 31.5416 68.0567 31.521 68.007C31.5004 67.9572 31.4897 67.9039 31.4897 67.85C31.4897 67.7961 31.5004 67.7428 31.521 67.693C31.5416 67.6433 31.5718 67.5981 31.6099 67.56C31.6482 67.5204 31.694 67.4889 31.7447 67.4673C31.7954 67.4458 31.8499 67.4347 31.9049 67.4347C31.96 67.4347 32.0145 67.4458 32.0652 67.4673C32.1158 67.4889 32.1617 67.5204 32.1999 67.56C32.238 67.5981 32.2682 67.6433 32.2889 67.693C32.3095 67.7428 32.3201 67.7961 32.3201 67.85C32.3201 67.9039 32.3095 67.9572 32.2889 68.007C32.2682 68.0567 32.238 68.1019 32.1999 68.14C32.1213 68.2176 32.0153 68.261 31.9049 68.261C31.7945 68.261 31.6885 68.2176 31.6099 68.14Z" fill="#ABFDE5"/>
<path d="M32.1801 65.19C32.1609 65.1731 32.1456 65.1523 32.1351 65.1291C32.1246 65.1058 32.1191 65.0805 32.1191 65.055C32.1191 65.0295 32.1246 65.0042 32.1351 64.9809C32.1456 64.9577 32.1609 64.9369 32.1801 64.92C32.2159 64.8842 32.2644 64.8641 32.3151 64.8641C32.3657 64.8641 32.4143 64.8842 32.4501 64.92C32.4859 64.9558 32.506 65.0044 32.506 65.055C32.506 65.1056 32.4859 65.1542 32.4501 65.19C32.4332 65.2092 32.4124 65.2245 32.3891 65.235C32.3659 65.2455 32.3406 65.2509 32.3151 65.2509C32.2895 65.2509 32.2643 65.2455 32.241 65.235C32.2177 65.2245 32.197 65.2092 32.1801 65.19Z" fill="#ABFDE5"/>
<path d="M35.0001 51.29C34.9474 51.2367 34.9115 51.169 34.8972 51.0954C34.8828 51.0218 34.8905 50.9456 34.9194 50.8763C34.9483 50.8071 34.997 50.748 35.0594 50.7064C35.1218 50.6648 35.1951 50.6426 35.2701 50.6426C35.3451 50.6426 35.4185 50.6648 35.4809 50.7064C35.5433 50.748 35.592 50.8071 35.6209 50.8763C35.6497 50.9456 35.6575 51.0218 35.6431 51.0954C35.6287 51.169 35.5929 51.2367 35.5401 51.29C35.5048 51.3257 35.4628 51.354 35.4164 51.3733C35.3701 51.3927 35.3203 51.4026 35.2701 51.4026C35.2199 51.4026 35.1702 51.3927 35.1239 51.3733C35.0775 51.354 35.0355 51.3257 35.0001 51.29Z" fill="#ABFDE5"/>
<path d="M53.1999 42.35C53.1573 42.3083 53.1281 42.2548 53.1161 42.1965C53.104 42.1381 53.1096 42.0775 53.1321 42.0223C53.1547 41.9672 53.1931 41.92 53.2426 41.8867C53.292 41.8535 53.3503 41.8358 53.4099 41.8358C53.4695 41.8358 53.5277 41.8535 53.5772 41.8867C53.6266 41.92 53.6651 41.9672 53.6876 42.0223C53.7101 42.0775 53.7157 42.1381 53.7037 42.1965C53.6916 42.2548 53.6624 42.3083 53.6199 42.35C53.5928 42.3784 53.5602 42.4011 53.5241 42.4166C53.488 42.432 53.4491 42.44 53.4099 42.44C53.3706 42.44 53.3317 42.432 53.2956 42.4166C53.2595 42.4011 53.2269 42.3784 53.1999 42.35Z" fill="#ABFDE5"/>
<path d="M62.4301 79.34C62.4086 79.3203 62.3914 79.2964 62.3797 79.2697C62.3679 79.243 62.3618 79.2142 62.3618 79.185C62.3618 79.1558 62.3679 79.127 62.3797 79.1003C62.3914 79.0736 62.4086 79.0497 62.4301 79.03C62.4507 79.0082 62.4755 78.9908 62.503 78.979C62.5305 78.9671 62.5602 78.961 62.5901 78.961C62.6201 78.961 62.6497 78.9671 62.6773 78.979C62.7048 78.9908 62.7296 79.0082 62.7501 79.03C62.7888 79.0724 62.8102 79.1276 62.8102 79.185C62.8102 79.2423 62.7888 79.2976 62.7501 79.34C62.7296 79.3618 62.7048 79.3791 62.6773 79.391C62.6497 79.4029 62.6201 79.409 62.5901 79.409C62.5602 79.409 62.5305 79.4029 62.503 79.391C62.4755 79.3791 62.4507 79.3618 62.4301 79.34Z" fill="#ABFDE5"/>
<path d="M59.1899 86.72C59.1684 86.7003 59.1512 86.6764 59.1394 86.6497C59.1277 86.623 59.1216 86.5942 59.1216 86.565C59.1216 86.5358 59.1277 86.507 59.1394 86.4803C59.1512 86.4536 59.1684 86.4297 59.1899 86.41C59.2105 86.3882 59.2353 86.3709 59.2628 86.359C59.2903 86.3471 59.3199 86.341 59.3499 86.341C59.3799 86.341 59.4095 86.3471 59.437 86.359C59.4645 86.3709 59.4893 86.3882 59.5099 86.41C59.5485 86.4524 59.57 86.5077 59.57 86.565C59.57 86.6224 59.5485 86.6776 59.5099 86.72C59.4893 86.7418 59.4645 86.7592 59.437 86.771C59.4095 86.7829 59.3799 86.789 59.3499 86.789C59.3199 86.789 59.2903 86.7829 59.2628 86.771C59.2353 86.7592 59.2105 86.7418 59.1899 86.72Z" fill="#ABFDE5"/>
<path d="M56.8902 92.83C56.8598 92.801 56.8389 92.7636 56.83 92.7226C56.8211 92.6817 56.8247 92.6389 56.8403 92.6C56.8559 92.5611 56.8828 92.5277 56.9175 92.5042C56.9523 92.4807 56.9932 92.4681 57.0352 92.4681C57.0771 92.4681 57.1181 92.4807 57.1529 92.5042C57.1876 92.5277 57.2145 92.5611 57.2301 92.6C57.2457 92.6389 57.2493 92.6817 57.2404 92.7226C57.2315 92.7636 57.2105 92.801 57.1802 92.83C57.1411 92.8673 57.0892 92.8881 57.0352 92.8881C56.9812 92.8881 56.9293 92.8673 56.8902 92.83Z" fill="#ABFDE5"/>
<path d="M64.5898 86.72C64.5683 86.7003 64.5511 86.6764 64.5393 86.6497C64.5276 86.623 64.5215 86.5942 64.5215 86.565C64.5215 86.5358 64.5276 86.507 64.5393 86.4803C64.5511 86.4536 64.5683 86.4297 64.5898 86.41C64.6104 86.3882 64.6352 86.3709 64.6627 86.359C64.6902 86.3471 64.7198 86.341 64.7498 86.341C64.7798 86.341 64.8094 86.3471 64.8369 86.359C64.8644 86.3709 64.8892 86.3882 64.9098 86.41C64.9485 86.4524 64.9699 86.5077 64.9699 86.565C64.9699 86.6224 64.9485 86.6776 64.9098 86.72C64.8892 86.7418 64.8644 86.7592 64.8369 86.771C64.8094 86.7829 64.7798 86.789 64.7498 86.789C64.7198 86.789 64.6902 86.7829 64.6627 86.771C64.6352 86.7592 64.6104 86.7418 64.5898 86.72Z" fill="#ABFDE5"/>
<path d="M68.52 83C68.5076 82.9907 68.4975 82.9786 68.4905 82.9647C68.4836 82.9508 68.48 82.9355 68.48 82.92C68.48 82.9045 68.4836 82.8892 68.4905 82.8753C68.4975 82.8614 68.5076 82.8493 68.52 82.84C68.5403 82.821 68.5671 82.8105 68.595 82.8105C68.6228 82.8105 68.6496 82.821 68.67 82.84C68.6824 82.8493 68.6925 82.8614 68.6994 82.8753C68.7064 82.8892 68.71 82.9045 68.71 82.92C68.71 82.9355 68.7064 82.9508 68.6994 82.9647C68.6925 82.9786 68.6824 82.9907 68.67 83C68.6618 83.0124 68.6506 83.0225 68.6375 83.0295C68.6244 83.0366 68.6098 83.0403 68.595 83.0403C68.5801 83.0403 68.5655 83.0366 68.5524 83.0295C68.5393 83.0225 68.5282 83.0124 68.52 83Z" fill="#ABFDE5"/>
<path d="M69.83 79.25C69.8013 79.2285 69.7776 79.2011 69.7605 79.1697C69.7433 79.1382 69.7331 79.1034 69.7306 79.0677C69.7281 79.032 69.7332 78.9961 69.7458 78.9626C69.7583 78.929 69.7779 78.8986 69.8032 78.8732C69.8285 78.8479 69.859 78.8283 69.8926 78.8158C69.9261 78.8033 69.962 78.7981 69.9977 78.8006C70.0334 78.8032 70.0682 78.8134 70.0996 78.8305C70.1311 78.8476 70.1585 78.8714 70.18 78.9C70.2161 78.9481 70.2336 79.0077 70.2294 79.0677C70.2251 79.1277 70.1993 79.1842 70.1568 79.2268C70.1142 79.2693 70.0577 79.2951 69.9977 79.2994C69.9377 79.3036 69.8781 79.2861 69.83 79.25Z" fill="#ABFDE5"/>
<path d="M63.6198 61.73C63.5858 61.6947 63.5629 61.6501 63.554 61.6019C63.5451 61.5537 63.5505 61.5039 63.5697 61.4587C63.5889 61.4136 63.621 61.3751 63.6619 61.348C63.7028 61.3209 63.7508 61.3065 63.7998 61.3065C63.8489 61.3065 63.8968 61.3209 63.9377 61.348C63.9787 61.3751 64.0107 61.4136 64.0299 61.4587C64.0491 61.5039 64.0546 61.5537 64.0457 61.6019C64.0367 61.6501 64.0138 61.6947 63.9798 61.73C63.9565 61.7542 63.9285 61.7734 63.8976 61.7866C63.8667 61.7997 63.8334 61.8065 63.7998 61.8065C63.7662 61.8065 63.7329 61.7997 63.702 61.7866C63.6711 61.7734 63.6431 61.7542 63.6198 61.73Z" fill="#ABFDE5"/>
<path d="M63.7499 50.59C63.7217 50.5603 63.7061 50.5209 63.7061 50.48C63.7061 50.4391 63.7217 50.3997 63.7499 50.37C63.7814 50.3457 63.8201 50.3325 63.8599 50.3325C63.8997 50.3325 63.9384 50.3457 63.9699 50.37C63.9905 50.3826 64.008 50.3998 64.0211 50.4202C64.0341 50.4405 64.0424 50.4636 64.0452 50.4876C64.0481 50.5116 64.0454 50.536 64.0375 50.5589C64.0296 50.5817 64.0166 50.6025 63.9995 50.6196C63.9824 50.6367 63.9616 50.6497 63.9387 50.6576C63.9159 50.6656 63.8915 50.6682 63.8675 50.6653C63.8435 50.6625 63.8204 50.6542 63.8 50.6412C63.7796 50.6281 63.7625 50.6106 63.7499 50.59Z" fill="#ABFDE5"/>
<path d="M57.3002 43.26C57.3315 43.2888 57.3726 43.3048 57.4152 43.3048C57.4577 43.3048 57.4988 43.2888 57.5302 43.26C57.5583 43.2303 57.574 43.1909 57.574 43.15C57.574 43.1091 57.5583 43.0697 57.5302 43.04C57.5161 43.0232 57.4985 43.0097 57.4786 43.0004C57.4587 42.9911 57.4371 42.9863 57.4152 42.9863C57.3932 42.9863 57.3716 42.9911 57.3517 43.0004C57.3318 43.0097 57.3142 43.0232 57.3002 43.04C57.272 43.0697 57.2563 43.1091 57.2563 43.15C57.2563 43.1909 57.272 43.2303 57.3002 43.26Z" fill="#ABFDE5"/>
<path d="M65.2898 45.22C65.254 45.1842 65.2339 45.1356 65.2339 45.085C65.2339 45.0344 65.254 44.9858 65.2898 44.95C65.3256 44.9142 65.3742 44.8941 65.4248 44.8941C65.4754 44.8941 65.524 44.9142 65.5598 44.95C65.5956 44.9858 65.6157 45.0344 65.6157 45.085C65.6157 45.1356 65.5956 45.1842 65.5598 45.22C65.524 45.2558 65.4754 45.2759 65.4248 45.2759C65.3742 45.2759 65.3256 45.2558 65.2898 45.22Z" fill="#ABFDE5"/>
<path d="M67.1901 46.58C67.1561 46.5447 67.1332 46.5001 67.1243 46.4519C67.1154 46.4037 67.1209 46.3539 67.14 46.3087C67.1592 46.2636 67.1913 46.2251 67.2322 46.198C67.2731 46.1709 67.3211 46.1565 67.3701 46.1565C67.4192 46.1565 67.4671 46.1709 67.5081 46.198C67.549 46.2251 67.581 46.2636 67.6002 46.3087C67.6194 46.3539 67.6249 46.4037 67.616 46.4519C67.6071 46.5001 67.5842 46.5447 67.5501 46.58C67.5268 46.6042 67.4988 46.6234 67.4679 46.6366C67.437 46.6497 67.4037 46.6565 67.3701 46.6565C67.3365 46.6565 67.3033 46.6497 67.2723 46.6366C67.2414 46.6234 67.2134 46.6042 67.1901 46.58Z" fill="#ABFDE5"/>
<path d="M85.62 66.45C85.585 66.4218 85.5564 66.3866 85.536 66.3466C85.5156 66.3066 85.5038 66.2628 85.5014 66.218C85.499 66.1732 85.5061 66.1284 85.5222 66.0864C85.5383 66.0445 85.563 66.0065 85.5947 65.9747C85.6264 65.943 85.6645 65.9183 85.7064 65.9022C85.7483 65.8862 85.7931 65.8791 85.838 65.8815C85.8828 65.8839 85.9266 65.8956 85.9666 65.9161C86.0065 65.9365 86.0418 65.9651 86.07 66C86.1196 66.0615 86.1447 66.1391 86.1405 66.218C86.1363 66.2969 86.1031 66.3714 86.0472 66.4273C85.9914 66.4832 85.9168 66.5164 85.838 66.5206C85.7591 66.5248 85.6814 66.4996 85.62 66.45Z" fill="#ABFDE5"/>
<path d="M77.1402 79.12C77.0996 79.0795 77.072 79.0278 77.0608 78.9715C77.0496 78.9153 77.0553 78.8569 77.0772 78.8039C77.0992 78.7509 77.1364 78.7056 77.184 78.6738C77.2317 78.6419 77.2878 78.6249 77.3452 78.6249C77.4025 78.6249 77.4586 78.6419 77.5063 78.6738C77.554 78.7056 77.5912 78.7509 77.6131 78.8039C77.6351 78.8569 77.6408 78.9153 77.6296 78.9715C77.6184 79.0278 77.5908 79.0795 77.5502 79.12C77.4946 79.172 77.4213 79.201 77.3452 79.201C77.269 79.201 77.1958 79.172 77.1402 79.12Z" fill="#ABFDE5"/>
<path d="M60.73 54.39C60.6628 54.3849 60.6002 54.3539 60.5554 54.3035C60.5106 54.2531 60.4872 54.1873 60.49 54.12C60.4925 54.0871 60.5015 54.0551 60.5164 54.0257C60.5314 53.9963 60.552 53.9702 60.5771 53.9488C60.6022 53.9275 60.6313 53.9112 60.6627 53.9012C60.694 53.8911 60.7271 53.8873 60.76 53.89C60.8263 53.89 60.8899 53.9163 60.9367 53.9632C60.9836 54.0101 61.01 54.0737 61.01 54.14C61.01 54.2063 60.9836 54.2699 60.9367 54.3168C60.8899 54.3637 60.8263 54.39 60.76 54.39" fill="#ABFDE5"/>
<path d="M55.6099 69.83C55.637 69.83 55.6639 69.8355 55.6888 69.8461C55.7138 69.8568 55.7363 69.8724 55.755 69.8921C55.7737 69.9117 55.7882 69.935 55.7976 69.9604C55.8071 69.9858 55.8113 70.0129 55.8099 70.04C55.8099 70.093 55.7888 70.1439 55.7513 70.1814C55.7138 70.2189 55.6629 70.24 55.6099 70.24C55.5828 70.2414 55.5557 70.2372 55.5303 70.2277C55.5049 70.2183 55.4816 70.2038 55.462 70.1851C55.4423 70.1664 55.4267 70.1439 55.416 70.1189C55.4054 70.094 55.3999 70.0671 55.3999 70.04C55.3999 69.9843 55.422 69.9309 55.4614 69.8915C55.5008 69.8521 55.5542 69.83 55.6099 69.83Z" fill="#ABFDE5"/>
<path d="M42.6602 71.18C42.6909 71.1732 42.7227 71.1733 42.7534 71.1805C42.784 71.1876 42.8126 71.2015 42.8372 71.2212C42.8617 71.2409 42.8815 71.2658 42.8951 71.2942C42.9087 71.3225 42.9157 71.3536 42.9157 71.385C42.9157 71.4164 42.9087 71.4475 42.8951 71.4758C42.8815 71.5042 42.8617 71.5291 42.8372 71.5488C42.8126 71.5685 42.784 71.5824 42.7534 71.5895C42.7227 71.5967 42.6909 71.5968 42.6602 71.59C42.6326 71.59 42.6053 71.5846 42.5798 71.574C42.5544 71.5635 42.5312 71.548 42.5117 71.5285C42.4922 71.509 42.4767 71.4858 42.4662 71.4604C42.4556 71.4349 42.4502 71.4076 42.4502 71.38C42.4502 71.3529 42.4556 71.326 42.4663 71.3011C42.477 71.2761 42.4926 71.2536 42.5123 71.2349C42.5319 71.2162 42.5552 71.2017 42.5806 71.1922C42.606 71.1828 42.6331 71.1786 42.6602 71.18Z" fill="#ABFDE5"/>
<path d="M41.0499 63.72C41.0907 63.7199 41.1299 63.7354 41.1596 63.7633C41.1894 63.7912 41.2074 63.8293 41.2099 63.87C41.2099 63.9124 41.193 63.9531 41.163 63.9831C41.133 64.0131 41.0923 64.03 41.0499 64.03C41.0092 64.0275 40.9711 64.0095 40.9432 63.9797C40.9153 63.95 40.8998 63.9108 40.8999 63.87C40.8999 63.8302 40.9157 63.7921 40.9438 63.7639C40.972 63.7358 41.0101 63.72 41.0499 63.72Z" fill="#ABFDE5"/>
<path d="M44.2899 60.66C44.3255 60.66 44.3603 60.6706 44.3899 60.6903C44.4195 60.7101 44.4425 60.7382 44.4562 60.7711C44.4698 60.804 44.4733 60.8402 44.4664 60.8751C44.4595 60.91 44.4423 60.9421 44.4171 60.9673C44.392 60.9925 44.3599 61.0096 44.325 61.0165C44.2901 61.0235 44.2539 61.0199 44.221 61.0063C44.1881 60.9927 44.16 60.9696 44.1402 60.94C44.1204 60.9104 44.1099 60.8756 44.1099 60.84C44.1099 60.7923 44.1288 60.7465 44.1626 60.7127C44.1963 60.679 44.2421 60.66 44.2899 60.66Z" fill="#ABFDE5"/>
<path d="M42.3001 56.36C42.2577 56.36 42.217 56.3769 42.187 56.4069C42.157 56.4369 42.1401 56.4776 42.1401 56.52C42.1427 56.5607 42.1607 56.5989 42.1904 56.6267C42.2201 56.6546 42.2594 56.6701 42.3001 56.67C42.3399 56.67 42.3781 56.6542 42.4062 56.6261C42.4343 56.5979 42.4501 56.5598 42.4501 56.52C42.4502 56.4792 42.4347 56.44 42.4069 56.4103C42.379 56.3805 42.3408 56.3625 42.3001 56.36Z" fill="#ABFDE5"/>
<path d="M63.3499 54.86C63.3855 54.86 63.4203 54.8706 63.4499 54.8903C63.4795 54.9101 63.5026 54.9382 63.5162 54.9711C63.5298 55.004 63.5334 55.0402 63.5265 55.0751C63.5195 55.11 63.5024 55.1421 63.4772 55.1673C63.452 55.1925 63.42 55.2096 63.385 55.2165C63.3501 55.2235 63.3139 55.2199 63.281 55.2063C63.2481 55.1927 63.22 55.1696 63.2003 55.14C63.1805 55.1104 63.1699 55.0756 63.1699 55.04C63.1699 54.9923 63.1889 54.9465 63.2226 54.9127C63.2564 54.879 63.3022 54.86 63.3499 54.86Z" fill="#ABFDE5"/>
<path d="M49.5501 45.17C49.5926 45.17 49.6333 45.1869 49.6633 45.2169C49.6933 45.2469 49.7101 45.2876 49.7101 45.33C49.7101 45.3724 49.6933 45.4131 49.6633 45.4431C49.6333 45.4731 49.5926 45.49 49.5501 45.49C49.5077 45.49 49.467 45.4731 49.437 45.4431C49.407 45.4131 49.3901 45.3724 49.3901 45.33C49.3901 45.2876 49.407 45.2469 49.437 45.2169C49.467 45.1869 49.5077 45.17 49.5501 45.17Z" fill="#ABFDE5"/>
<path d="M42.8398 30.83C42.9174 30.83 42.9932 30.8532 43.0575 30.8965C43.1218 30.9398 43.1718 31.0013 43.201 31.0732C43.2302 31.145 43.2373 31.2239 43.2214 31.2998C43.2056 31.3758 43.1674 31.4452 43.1119 31.4993C43.0563 31.5535 42.9859 31.5898 42.9096 31.6037C42.8333 31.6176 42.7546 31.6084 42.6835 31.5774C42.6125 31.5463 42.5523 31.4948 42.5106 31.4293C42.469 31.3639 42.4478 31.2875 42.4498 31.21C42.4524 31.1083 42.4947 31.0117 42.5675 30.9407C42.6404 30.8697 42.7381 30.83 42.8398 30.83Z" fill="#ABFDE5"/>
<path d="M40.69 25C40.7315 25 40.7721 25.0123 40.8067 25.0354C40.8412 25.0585 40.8681 25.0913 40.884 25.1296C40.8999 25.168 40.904 25.2102 40.8959 25.251C40.8878 25.2917 40.8678 25.3291 40.8385 25.3585C40.8091 25.3879 40.7717 25.4079 40.7309 25.416C40.6902 25.4241 40.648 25.4199 40.6096 25.404C40.5712 25.3881 40.5384 25.3612 40.5154 25.3267C40.4923 25.2921 40.48 25.2515 40.48 25.21C40.4824 25.1551 40.5053 25.1031 40.5442 25.0642C40.5831 25.0254 40.6351 25.0024 40.69 25Z" fill="#ABFDE5"/>
<path d="M42.5502 29.64C42.5767 29.64 42.6022 29.6505 42.6209 29.6693C42.6397 29.688 42.6502 29.7135 42.6502 29.74C42.6502 29.7665 42.6397 29.792 42.6209 29.8107C42.6022 29.8295 42.5767 29.84 42.5502 29.84C42.5237 29.84 42.4982 29.8295 42.4795 29.8107C42.4607 29.792 42.4502 29.7665 42.4502 29.74C42.4502 29.7135 42.4607 29.688 42.4795 29.6693C42.4982 29.6505 42.5237 29.64 42.5502 29.64Z" fill="#ABFDE5"/>
<path d="M57.7802 34C57.8624 34 57.9413 34.0327 57.9994 34.0908C58.0576 34.1489 58.0902 34.2278 58.0902 34.31C58.0902 34.3922 58.0576 34.4711 57.9994 34.5292C57.9413 34.5873 57.8624 34.62 57.7802 34.62C57.698 34.62 57.6191 34.5873 57.561 34.5292C57.5029 34.4711 57.4702 34.3922 57.4702 34.31C57.4702 34.2278 57.5029 34.1489 57.561 34.0908C57.6191 34.0327 57.698 34 57.7802 34Z" fill="#ABFDE5"/>
<path d="M63.7998 46.39C63.8352 46.39 63.8704 46.397 63.9031 46.4106C63.9359 46.4241 63.9656 46.444 63.9907 46.4691C64.0158 46.4942 64.0357 46.5239 64.0492 46.5567C64.0628 46.5894 64.0698 46.6245 64.0698 46.66C64.0698 46.6955 64.0628 46.7306 64.0492 46.7633C64.0357 46.7961 64.0158 46.8258 63.9907 46.8509C63.9656 46.876 63.9359 46.8959 63.9031 46.9094C63.8704 46.923 63.8352 46.93 63.7998 46.93C63.7282 46.93 63.6595 46.9016 63.6089 46.8509C63.5582 46.8003 63.5298 46.7316 63.5298 46.66C63.5298 46.5884 63.5582 46.5197 63.6089 46.4691C63.6595 46.4184 63.7282 46.39 63.7998 46.39Z" fill="#ABFDE5"/>
<path d="M49 113.84C49.0811 113.84 49.1603 113.864 49.2278 113.909C49.2952 113.954 49.3477 114.018 49.3788 114.093C49.4098 114.168 49.4179 114.25 49.4021 114.33C49.3863 114.41 49.3472 114.483 49.2899 114.54C49.2325 114.597 49.1595 114.636 49.08 114.652C49.0004 114.668 48.918 114.66 48.8431 114.629C48.7682 114.598 48.7041 114.545 48.6591 114.478C48.614 114.41 48.59 114.331 48.59 114.25C48.5886 114.196 48.5983 114.142 48.6184 114.091C48.6385 114.041 48.6687 113.995 48.707 113.957C48.7453 113.919 48.7911 113.889 48.8415 113.868C48.8918 113.848 48.9458 113.839 49 113.84Z" fill="#ABFDE5"/>
<path d="M23.83 116.46C23.9111 116.46 23.9904 116.484 24.0578 116.529C24.1253 116.574 24.1778 116.638 24.2088 116.713C24.2399 116.788 24.248 116.87 24.2322 116.95C24.2164 117.03 24.1773 117.103 24.12 117.16C24.0626 117.217 23.9896 117.256 23.91 117.272C23.8305 117.288 23.7481 117.28 23.6731 117.249C23.5982 117.218 23.5342 117.165 23.4891 117.098C23.4441 117.03 23.4201 116.951 23.4201 116.87C23.4187 116.816 23.4283 116.762 23.4485 116.711C23.4686 116.661 23.4987 116.615 23.5371 116.577C23.5754 116.539 23.6212 116.509 23.6715 116.488C23.7219 116.468 23.7758 116.459 23.83 116.46Z" fill="#ABFDE5"/>
<path d="M20.6999 102C20.7795 102 20.8558 102.032 20.912 102.088C20.9683 102.144 20.9999 102.22 20.9999 102.3C20.9999 102.38 20.9683 102.456 20.912 102.512C20.8558 102.568 20.7795 102.6 20.6999 102.6C20.6203 102.6 20.544 102.568 20.4878 102.512C20.4315 102.456 20.3999 102.38 20.3999 102.3C20.3999 102.22 20.4315 102.144 20.4878 102.088C20.544 102.032 20.6203 102 20.6999 102Z" fill="#ABFDE5"/>
<path d="M26.9999 96C27.0838 96.0141 27.1601 96.0576 27.215 96.1225C27.27 96.1875 27.3001 96.2699 27.3001 96.355C27.3001 96.4401 27.27 96.5225 27.215 96.5875C27.1601 96.6525 27.0838 96.6959 26.9999 96.71C26.916 96.6959 26.8398 96.6525 26.7848 96.5875C26.7299 96.5225 26.6997 96.4401 26.6997 96.355C26.6997 96.2699 26.7299 96.1875 26.7848 96.1225C26.8398 96.0576 26.916 96.0141 26.9999 96Z" fill="#ABFDE5"/>
<path d="M23.1198 87.64C23.0605 87.64 23.0025 87.6576 22.9532 87.6906C22.9038 87.7235 22.8654 87.7704 22.8427 87.8252C22.82 87.88 22.814 87.9403 22.8256 87.9985C22.8372 88.0567 22.8657 88.1102 22.9077 88.1521C22.9496 88.1941 23.0031 88.2227 23.0613 88.2342C23.1195 88.2458 23.1798 88.2399 23.2346 88.2172C23.2894 88.1945 23.3363 88.156 23.3693 88.1067C23.4022 88.0573 23.4198 87.9993 23.4198 87.94C23.4212 87.9002 23.4144 87.8606 23.3998 87.8236C23.3853 87.7865 23.3632 87.7529 23.3351 87.7248C23.3069 87.6966 23.2733 87.6746 23.2363 87.66C23.1992 87.6454 23.1596 87.6386 23.1198 87.64Z" fill="#ABFDE5"/>
<path d="M64.0899 84.71C64.1619 84.708 64.2328 84.7277 64.2936 84.7665C64.3543 84.8053 64.4019 84.8614 64.4304 84.9275C64.4589 84.9937 64.4669 85.0669 64.4533 85.1377C64.4397 85.2084 64.4052 85.2735 64.3543 85.3244C64.3034 85.3754 64.2383 85.4099 64.1676 85.4234C64.0968 85.437 64.0236 85.429 63.9574 85.4005C63.8913 85.3721 63.8352 85.3244 63.7964 85.2637C63.7576 85.203 63.7379 85.132 63.7399 85.06C63.7424 84.968 63.7801 84.8804 63.8452 84.8153C63.9103 84.7502 63.9978 84.7125 64.0899 84.71Z" fill="#ABFDE5"/>
<path d="M37.2301 65.86C37.2748 65.8519 37.3207 65.8537 37.3646 65.8652C37.4085 65.8768 37.4494 65.8979 37.4842 65.927C37.5191 65.9561 37.5471 65.9925 37.5664 66.0336C37.5856 66.0747 37.5956 66.1196 37.5956 66.165C37.5956 66.2104 37.5856 66.2553 37.5664 66.2964C37.5471 66.3375 37.5191 66.3739 37.4842 66.403C37.4494 66.4321 37.4085 66.4532 37.3646 66.4647C37.3207 66.4763 37.2748 66.4781 37.2301 66.47C37.1587 66.457 37.0941 66.4194 37.0476 66.3636C37.0011 66.3079 36.9756 66.2376 36.9756 66.165C36.9756 66.0924 37.0011 66.0221 37.0476 65.9664C37.0941 65.9106 37.1587 65.873 37.2301 65.86Z" fill="#ABFDE5"/>
<path d="M24.1799 37.94C24.3302 37.94 24.4772 37.9846 24.6022 38.0681C24.7271 38.1516 24.8245 38.2703 24.8821 38.4092C24.9396 38.548 24.9546 38.7008 24.9253 38.8483C24.896 38.9957 24.8236 39.1311 24.7173 39.2374C24.611 39.3437 24.4756 39.4161 24.3282 39.4454C24.1808 39.4747 24.028 39.4597 23.8891 39.4021C23.7502 39.3446 23.6315 39.2472 23.548 39.1222C23.4645 38.9973 23.4199 38.8503 23.4199 38.7C23.4199 38.4984 23.5 38.3051 23.6425 38.1626C23.785 38.0201 23.9784 37.94 24.1799 37.94Z" fill="#ABFDE5"/>
<path d="M20 26.55C20.0811 26.55 20.1603 26.574 20.2278 26.6191C20.2952 26.6641 20.3477 26.7282 20.3788 26.8031C20.4098 26.878 20.4179 26.9605 20.4021 27.04C20.3863 27.1195 20.3472 27.1926 20.2899 27.2499C20.2325 27.3073 20.1595 27.3463 20.08 27.3621C20.0004 27.3779 19.918 27.3698 19.8431 27.3388C19.7682 27.3078 19.7041 27.2552 19.6591 27.1878C19.614 27.1204 19.59 27.0411 19.59 26.96C19.5886 26.9058 19.5983 26.8519 19.6184 26.8015C19.6385 26.7511 19.6687 26.7054 19.707 26.667C19.7454 26.6287 19.7911 26.5985 19.8415 26.5784C19.8918 26.5583 19.9458 26.5486 20 26.55Z" fill="#ABFDE5"/>
<path d="M23.6302 35.63C23.6832 35.63 23.7341 35.6511 23.7716 35.6886C23.8091 35.7261 23.8302 35.777 23.8302 35.83C23.8302 35.883 23.8091 35.9339 23.7716 35.9714C23.7341 36.0089 23.6832 36.03 23.6302 36.03C23.5771 36.03 23.5263 36.0089 23.4888 35.9714C23.4512 35.9339 23.4302 35.883 23.4302 35.83C23.4302 35.777 23.4512 35.7261 23.4888 35.6886C23.5263 35.6511 23.5771 35.63 23.6302 35.63Z" fill="#ABFDE5"/>
<path d="M53.26 44.09C53.3806 44.09 53.4986 44.1258 53.5989 44.1928C53.6992 44.2598 53.7774 44.3551 53.8236 44.4666C53.8697 44.578 53.8818 44.7007 53.8583 44.819C53.8347 44.9373 53.7766 45.046 53.6913 45.1313C53.606 45.2166 53.4973 45.2747 53.379 45.2983C53.2607 45.3218 53.138 45.3097 53.0265 45.2636C52.9151 45.2174 52.8198 45.1392 52.7528 45.0389C52.6858 44.9386 52.65 44.8206 52.65 44.7C52.6486 44.6195 52.6635 44.5396 52.6937 44.465C52.7238 44.3904 52.7687 44.3226 52.8256 44.2657C52.8826 44.2087 52.9503 44.1639 53.025 44.1337C53.0996 44.1035 53.1795 44.0886 53.26 44.09Z" fill="#ABFDE5"/>
<path d="M65.0002 68.23C65.1408 68.23 65.2756 68.2858 65.375 68.3852C65.4744 68.4846 65.5302 68.6194 65.5302 68.76C65.5302 68.9006 65.4744 69.0354 65.375 69.1348C65.2756 69.2342 65.1408 69.29 65.0002 69.29C64.8596 69.29 64.7248 69.2342 64.6255 69.1348C64.5261 69.0354 64.4702 68.9006 64.4702 68.76C64.4702 68.6194 64.5261 68.4846 64.6255 68.3852C64.7248 68.2858 64.8596 68.23 65.0002 68.23Z" fill="#ABFDE5"/>
<path d="M31.2002 81.53C31.398 81.53 31.5913 81.5887 31.7558 81.6985C31.9202 81.8084 32.0484 81.9646 32.1241 82.1473C32.1998 82.33 32.2196 82.5311 32.181 82.7251C32.1424 82.9191 32.0472 83.0973 31.9073 83.2371C31.7674 83.377 31.5893 83.4722 31.3953 83.5108C31.2013 83.5494 31.0002 83.5296 30.8175 83.4539C30.6348 83.3782 30.4786 83.25 30.3687 83.0856C30.2588 82.9211 30.2002 82.7278 30.2002 82.53C30.2002 82.2648 30.3056 82.0104 30.4931 81.8229C30.6806 81.6354 30.935 81.53 31.2002 81.53Z" fill="#ABFDE5"/>
<path d="M29.23 42.93C29.4278 42.93 29.6211 42.9886 29.7856 43.0985C29.95 43.2084 30.0782 43.3646 30.1539 43.5473C30.2295 43.73 30.2494 43.9311 30.2108 44.1251C30.1722 44.3191 30.0769 44.4973 29.9371 44.6371C29.7972 44.777 29.6191 44.8722 29.4251 44.9108C29.2311 44.9494 29.03 44.9296 28.8473 44.8539C28.6646 44.7782 28.5084 44.65 28.3985 44.4856C28.2886 44.3211 28.23 44.1278 28.23 43.93C28.23 43.6648 28.3353 43.4104 28.5229 43.2229C28.7104 43.0354 28.9648 42.93 29.23 42.93Z" fill="#ABFDE5"/>
<path d="M63.7501 49.28C63.9234 49.28 64.0898 49.3481 64.2133 49.4698C64.3368 49.5914 64.4075 49.7567 64.4101 49.93C64.4075 50.1042 64.3372 50.2706 64.2139 50.3938C64.0907 50.5171 63.9243 50.5874 63.7501 50.59C63.5768 50.5874 63.4115 50.5167 63.2899 50.3932C63.1682 50.2697 63.1001 50.1033 63.1001 49.93C63.1001 49.7576 63.1686 49.5923 63.2905 49.4704C63.4124 49.3485 63.5777 49.28 63.7501 49.28Z" fill="#ABFDE5"/>
<path d="M66.4201 53.21C66.4794 53.21 66.5374 53.2276 66.5868 53.2606C66.6361 53.2935 66.6746 53.3404 66.6973 53.3952C66.72 53.45 66.7259 53.5103 66.7143 53.5685C66.7028 53.6267 66.6742 53.6802 66.6322 53.7221C66.5903 53.7641 66.5368 53.7927 66.4786 53.8042C66.4205 53.8158 66.3601 53.8099 66.3053 53.7872C66.2505 53.7645 66.2036 53.726 66.1707 53.6767C66.1377 53.6273 66.1201 53.5693 66.1201 53.51C66.1201 53.4304 66.1517 53.3541 66.208 53.2979C66.2642 53.2416 66.3405 53.21 66.4201 53.21Z" fill="#ABFDE5"/>
<path d="M78.8202 72C78.9793 72 79.132 72.0632 79.2445 72.1757C79.357 72.2883 79.4202 72.4409 79.4202 72.6C79.4202 72.7591 79.357 72.9117 79.2445 73.0243C79.132 73.1368 78.9793 73.2 78.8202 73.2C78.6611 73.2 78.5085 73.1368 78.396 73.0243C78.2834 72.9117 78.2202 72.7591 78.2202 72.6C78.2202 72.4409 78.2834 72.2883 78.396 72.1757C78.5085 72.0632 78.6611 72 78.8202 72Z" fill="#ABFDE5"/>
<path d="M47.6499 81.53C47.7825 81.53 47.9097 81.5827 48.0035 81.6764C48.0972 81.7702 48.1499 81.8974 48.1499 82.03C48.1499 82.1626 48.0972 82.2898 48.0035 82.3836C47.9097 82.4773 47.7825 82.53 47.6499 82.53C47.5173 82.53 47.3901 82.4773 47.2963 82.3836C47.2026 82.2898 47.1499 82.1626 47.1499 82.03C47.1499 81.8974 47.2026 81.7702 47.2963 81.6764C47.3901 81.5827 47.5173 81.53 47.6499 81.53Z" fill="#ABFDE5"/>
<path d="M60.85 31.38C61.2098 31.1571 61.6273 31.0454 62.0503 31.0588C62.4733 31.0722 62.8829 31.2101 63.2279 31.4553C63.5728 31.7005 63.8377 32.042 63.9894 32.4371C64.1411 32.8322 64.1728 33.2633 64.0806 33.6763C63.9883 34.0893 63.7762 34.466 63.4709 34.759C63.1655 35.052 62.7805 35.2484 62.364 35.3235C61.9475 35.3987 61.5181 35.3492 61.1296 35.1814C60.7411 35.0135 60.4108 34.7348 60.18 34.38C60.0211 34.1408 59.9122 33.872 59.8599 33.5897C59.8076 33.3074 59.8128 33.0174 59.8754 32.7372C59.938 32.4569 60.0566 32.1923 60.2241 31.959C60.3916 31.7258 60.6045 31.5288 60.85 31.38Z" fill="#ABFDE5"/>
<path d="M93.4002 28.32C93.4448 28.2918 93.4946 28.2726 93.5466 28.2636C93.5987 28.2546 93.652 28.2559 93.7036 28.2676C93.7551 28.2792 93.8038 28.3008 93.847 28.3313C93.8902 28.3617 93.9269 28.4004 93.9552 28.445C93.9834 28.4896 94.0026 28.5394 94.0116 28.5915C94.0206 28.6435 94.0192 28.6969 94.0076 28.7484C93.996 28.7999 93.9744 28.8487 93.9439 28.8918C93.9135 28.935 93.8748 28.9718 93.8302 29C93.74 29.057 93.6309 29.0759 93.5268 29.0524C93.4227 29.029 93.3322 28.9652 93.2752 28.875C93.2181 28.7848 93.1993 28.6757 93.2227 28.5716C93.2462 28.4675 93.31 28.377 93.4002 28.32Z" fill="#ABFDE5"/>
<path d="M67.3802 22.69C67.5449 22.5941 67.7399 22.5645 67.9257 22.6072C68.1114 22.6499 68.2739 22.7618 68.3802 22.92C68.4333 23.0034 68.4696 23.0964 68.4868 23.1938C68.504 23.2912 68.5019 23.3911 68.4806 23.4876C68.4592 23.5842 68.419 23.6756 68.3623 23.7567C68.3057 23.8377 68.2336 23.9068 68.1502 23.96C68.0668 24.0132 67.9737 24.0494 67.8763 24.0667C67.7789 24.0839 67.6791 24.0817 67.5825 24.0604C67.486 24.039 67.3945 23.9989 67.3135 23.9422C67.2324 23.8855 67.1633 23.8134 67.1102 23.73C67.0143 23.5653 66.9847 23.3703 67.0274 23.1845C67.0701 22.9988 67.1819 22.8363 67.3402 22.73" fill="#ABFDE5"/>
<path d="M41.5398 28.18C41.5723 28.1581 41.609 28.143 41.6475 28.1356C41.6861 28.1283 41.7257 28.1288 41.7641 28.1372C41.8024 28.1456 41.8386 28.1617 41.8705 28.1846C41.9025 28.2074 41.9294 28.2365 41.9498 28.27C41.9708 28.3035 41.985 28.3408 41.9916 28.3798C41.9982 28.4187 41.9971 28.4586 41.9882 28.4972C41.9794 28.5357 41.9631 28.5721 41.9402 28.6044C41.9173 28.6366 41.8883 28.664 41.8548 28.685C41.8213 28.706 41.784 28.7202 41.745 28.7268C41.7061 28.7334 41.6662 28.7323 41.6276 28.7234C41.5891 28.7146 41.5527 28.6983 41.5204 28.6754C41.4882 28.6525 41.4608 28.6235 41.4398 28.59C41.4183 28.5568 41.4038 28.5196 41.3972 28.4807C41.3905 28.4417 41.392 28.4018 41.4013 28.3634C41.4107 28.325 41.4278 28.2889 41.4516 28.2574C41.4754 28.2259 41.5054 28.1995 41.5398 28.18Z" fill="#ABFDE5"/>
<path d="M46.7201 16.56C46.832 16.4886 46.9571 16.4402 47.0879 16.4177C47.2187 16.3951 47.3528 16.3988 47.4822 16.4286C47.6115 16.4584 47.7337 16.5136 47.8415 16.5911C47.9493 16.6686 48.0406 16.7668 48.1101 16.88C48.2132 17.0479 48.2643 17.2426 48.2572 17.4395C48.25 17.6364 48.1848 17.8268 48.0698 17.9868C47.9548 18.1468 47.795 18.2693 47.6107 18.3388C47.4263 18.4083 47.2255 18.4218 47.0335 18.3776C46.8414 18.3334 46.6668 18.2335 46.5313 18.0903C46.3959 17.9472 46.3058 17.7672 46.2724 17.573C46.2389 17.3788 46.2635 17.1791 46.3432 16.9989C46.4228 16.8186 46.5539 16.666 46.7201 16.56Z" fill="#ABFDE5"/>
<path d="M56.7701 56.13C56.862 56.0719 56.9691 56.0423 57.0778 56.045C57.1864 56.0476 57.2919 56.0825 57.3808 56.145C57.4697 56.2076 57.5381 56.2952 57.5772 56.3966C57.6164 56.498 57.6247 56.6087 57.6009 56.7148C57.5772 56.8209 57.5226 56.9176 57.4439 56.9927C57.3652 57.0677 57.2661 57.1178 57.159 57.1366C57.0519 57.1553 56.9417 57.1419 56.8422 57.098C56.7427 57.0541 56.6585 56.9817 56.6001 56.89C56.56 56.8294 56.5324 56.7613 56.5192 56.6897C56.506 56.6182 56.5074 56.5448 56.5233 56.4738C56.5392 56.4028 56.5692 56.3358 56.6116 56.2767C56.654 56.2176 56.708 56.1677 56.7701 56.13Z" fill="#ABFDE5"/>
<path d="M68.63 95.8C68.6917 95.7616 68.7603 95.7358 68.8319 95.7241C68.9036 95.7124 68.9769 95.7149 69.0475 95.7317C69.1182 95.7484 69.1848 95.779 69.2436 95.8216C69.3024 95.8642 69.3522 95.9181 69.39 95.98C69.4302 96.0406 69.4577 96.1087 69.4709 96.1803C69.4841 96.2518 69.4828 96.3252 69.4669 96.3962C69.451 96.4672 69.421 96.5342 69.3785 96.5933C69.3361 96.6524 69.2822 96.7023 69.22 96.74C69.0954 96.8182 68.9447 96.8438 68.8013 96.8109C68.6578 96.7781 68.5333 96.6897 68.455 96.565C68.3768 96.4404 68.3513 96.2897 68.3841 96.1463C68.4169 96.0028 68.5054 95.8782 68.63 95.8Z" fill="#ABFDE5"/>
<path d="M106.76 81.16C106.81 81.1273 106.868 81.1103 106.928 81.111C106.988 81.1117 107.046 81.1301 107.095 81.164C107.144 81.1978 107.182 81.2455 107.204 81.3009C107.225 81.3564 107.23 81.4171 107.218 81.4753C107.205 81.5335 107.175 81.5866 107.132 81.6278C107.089 81.669 107.034 81.6964 106.976 81.7066C106.917 81.7167 106.856 81.7092 106.802 81.6848C106.748 81.6605 106.702 81.6205 106.67 81.57C106.648 81.5375 106.633 81.5008 106.626 81.4622C106.618 81.4237 106.619 81.3841 106.627 81.3457C106.636 81.3074 106.652 81.2712 106.675 81.2392C106.698 81.2073 106.727 81.1804 106.76 81.16Z" fill="#ABFDE5"/>
<path d="M59.1898 101.76C59.2524 101.723 59.3271 101.711 59.3981 101.728C59.469 101.745 59.5306 101.788 59.5698 101.85C59.6082 101.911 59.6213 101.985 59.6064 102.056C59.5914 102.127 59.5497 102.189 59.4898 102.23C59.4257 102.268 59.3494 102.28 59.2768 102.263C59.2041 102.246 59.1408 102.202 59.0998 102.14C59.0623 102.077 59.0508 102.003 59.0676 101.932C59.0844 101.861 59.1282 101.799 59.1898 101.76Z" fill="#ABFDE5"/>
<path d="M47.0501 96.55C47.1531 96.4885 47.2757 96.4688 47.3929 96.4948C47.51 96.5208 47.6128 96.5907 47.6801 96.69C47.7432 96.7936 47.7628 96.9179 47.7347 97.0359C47.7066 97.1539 47.6331 97.256 47.5301 97.32C47.4795 97.351 47.4234 97.3717 47.3648 97.381C47.3063 97.3902 47.2465 97.3878 47.1889 97.3738C47.1313 97.3599 47.077 97.3347 47.0291 97.2997C46.9813 97.2648 46.9408 97.2207 46.9101 97.17C46.8466 97.0692 46.8256 96.9473 46.8519 96.8311C46.8781 96.7148 46.9494 96.6138 47.0501 96.55Z" fill="#ABFDE5"/>
<path d="M40.9001 97.57C40.98 97.5209 41.0759 97.5049 41.1675 97.5255C41.259 97.546 41.3389 97.6014 41.3901 97.68C41.425 97.719 41.4509 97.7651 41.4661 97.8151C41.4814 97.8651 41.4855 97.9178 41.4783 97.9696C41.4711 98.0214 41.4527 98.071 41.4244 98.1149C41.3961 98.1589 41.3586 98.1961 41.3144 98.2241C41.2702 98.2521 41.2205 98.2701 41.1686 98.2769C41.1168 98.2837 41.0641 98.2792 41.0142 98.2635C40.9643 98.2479 40.9184 98.2216 40.8797 98.1865C40.841 98.1513 40.8104 98.1082 40.7901 98.06C40.741 97.9801 40.725 97.8842 40.7456 97.7927C40.7661 97.7011 40.8216 97.6213 40.9001 97.57Z" fill="#ABFDE5"/>
<path d="M32 85C32.1134 84.9321 32.2486 84.9108 32.3773 84.9407C32.506 84.9705 32.6181 85.0492 32.69 85.16C32.7265 85.2162 32.7514 85.2791 32.7631 85.345C32.7748 85.411 32.7731 85.4786 32.7582 85.5439C32.7433 85.6092 32.7154 85.6708 32.6762 85.7251C32.637 85.7794 32.5873 85.8253 32.53 85.86C32.4747 85.8963 32.4125 85.9209 32.3473 85.9325C32.2822 85.9441 32.2153 85.9424 32.1508 85.9275C32.0864 85.9125 32.0256 85.8846 31.9722 85.8455C31.9187 85.8065 31.8738 85.7569 31.84 85.7C31.8035 85.6438 31.7787 85.5809 31.767 85.515C31.7553 85.449 31.7569 85.3814 31.7718 85.3161C31.7868 85.2508 31.8147 85.1892 31.8539 85.1349C31.8931 85.0806 31.9428 85.0347 32 85Z" fill="#ABFDE5"/>
<path d="M44.0501 0.400001C44.0238 0.39872 43.9981 0.392268 43.9743 0.381015C43.9505 0.369761 43.9292 0.353928 43.9116 0.33442C43.8939 0.314913 43.8803 0.292116 43.8715 0.267334C43.8626 0.242552 43.8588 0.216273 43.8601 0.190001C43.8613 0.162816 43.8681 0.136167 43.88 0.111684C43.8919 0.087201 43.9086 0.0653993 43.9292 0.0476131C43.9498 0.0298269 43.9738 0.0164305 43.9998 0.00824367C44.0257 5.68749e-05 44.0531 -0.00274805 44.0801 5.51459e-07C44.1064 0.00249916 44.132 0.0101892 44.1553 0.022626C44.1786 0.0350628 44.1993 0.0519997 44.216 0.0724574C44.2327 0.0929152 44.2453 0.116488 44.2528 0.141813C44.2604 0.167138 44.2629 0.193713 44.2601 0.220001C44.2589 0.245876 44.2524 0.27123 44.241 0.294503C44.2297 0.317777 44.2137 0.338479 44.194 0.355337C44.1743 0.372195 44.1514 0.384854 44.1267 0.392534C44.1019 0.400215 44.0759 0.402756 44.0501 0.400001Z" fill="#ABFDE5"/>
<path d="M52.8698 10.36C52.7808 10.3406 52.7018 10.2899 52.6471 10.2171C52.5924 10.1443 52.5656 10.0543 52.5716 9.96346C52.5777 9.8726 52.6162 9.78694 52.6801 9.72207C52.744 9.6572 52.829 9.61743 52.9198 9.61C52.9743 9.60554 53.0291 9.61288 53.0804 9.63152C53.1318 9.65016 53.1785 9.67966 53.2175 9.71801C53.2564 9.75636 53.2866 9.80265 53.306 9.85374C53.3254 9.90482 53.3336 9.95949 53.33 10.014C53.3263 10.0685 53.311 10.1216 53.2849 10.1697C53.2589 10.2177 53.2228 10.2596 53.1792 10.2925C53.1355 10.3253 53.0852 10.3483 53.0319 10.36C52.9785 10.3716 52.9232 10.3716 52.8698 10.36Z" fill="#ABFDE5"/>
<path d="M49.5799 14.52C49.5597 14.5202 49.5397 14.516 49.5213 14.5078C49.5028 14.4995 49.4864 14.4874 49.4731 14.4722C49.4598 14.457 49.45 14.4391 49.4442 14.4197C49.4385 14.4004 49.437 14.38 49.4399 14.36C49.4412 14.3403 49.4463 14.321 49.4551 14.3033C49.4638 14.2856 49.476 14.2698 49.4908 14.2568C49.5057 14.2438 49.523 14.2338 49.5417 14.2275C49.5604 14.2212 49.5802 14.2186 49.5999 14.22C49.6388 14.2249 49.6745 14.2439 49.7003 14.2734C49.7261 14.3029 49.7402 14.3408 49.7399 14.38C49.7386 14.3997 49.7335 14.419 49.7248 14.4367C49.716 14.4544 49.7039 14.4702 49.689 14.4832C49.6741 14.4963 49.6568 14.5062 49.6381 14.5125C49.6194 14.5188 49.5996 14.5214 49.5799 14.52Z" fill="#ABFDE5"/>
<path d="M44.0498 17.67C43.9514 17.6618 43.8576 17.6247 43.7803 17.5632C43.703 17.5018 43.6456 17.4189 43.6153 17.3249C43.5851 17.2308 43.5834 17.13 43.6104 17.035C43.6374 16.94 43.6919 16.8551 43.7671 16.7911C43.8423 16.7271 43.9347 16.6867 44.0328 16.6752C44.1309 16.6636 44.2302 16.6813 44.3182 16.7261C44.4062 16.771 44.4789 16.8408 44.5273 16.9269C44.5756 17.013 44.5974 17.1115 44.5898 17.21C44.5848 17.2757 44.5668 17.3398 44.5369 17.3986C44.507 17.4573 44.4657 17.5096 44.4155 17.5523C44.3654 17.5951 44.3072 17.6275 44.2444 17.6477C44.1817 17.6679 44.1155 17.6755 44.0498 17.67Z" fill="#ABFDE5"/>
<path d="M54.81 28.88C54.7367 28.8724 54.669 28.8372 54.6207 28.7815C54.5724 28.7257 54.5471 28.6537 54.55 28.58C54.5526 28.5432 54.5624 28.5073 54.5788 28.4742C54.5953 28.4412 54.6181 28.4118 54.646 28.3876C54.6739 28.3635 54.7062 28.3451 54.7413 28.3335C54.7763 28.3219 54.8132 28.3173 54.85 28.32C54.9216 28.3299 54.9869 28.3661 55.0331 28.4216C55.0793 28.4771 55.1032 28.5478 55.1 28.62C55.0949 28.6925 55.0618 28.7602 55.0076 28.8087C54.9535 28.8572 54.8827 28.8828 54.81 28.88Z" fill="#ABFDE5"/>
<path d="M49.1402 39.19C49.085 39.1859 49.0323 39.1656 48.9887 39.1316C48.9451 39.0976 48.9125 39.0514 48.8951 38.9989C48.8777 38.9464 48.8762 38.8899 48.8909 38.8365C48.9055 38.7832 48.9357 38.7354 48.9775 38.6992C49.0193 38.6629 49.0709 38.6399 49.1258 38.633C49.1806 38.626 49.2363 38.6355 49.2859 38.6602C49.3354 38.6849 49.3764 38.7237 49.4039 38.7717C49.4314 38.8197 49.444 38.8748 49.4402 38.93C49.4326 39.0034 49.3974 39.0711 49.3417 39.1194C49.2859 39.1677 49.2139 39.1929 49.1402 39.19Z" fill="#ABFDE5"/>
<path d="M29.44 33.82C29.4203 33.82 29.4008 33.8161 29.3826 33.8086C29.3644 33.801 29.3479 33.79 29.334 33.7761C29.32 33.7621 29.309 33.7456 29.3015 33.7274C29.2939 33.7092 29.29 33.6897 29.29 33.67C29.29 33.6503 29.2939 33.6308 29.3015 33.6126C29.309 33.5944 29.32 33.5779 29.334 33.5639C29.3479 33.55 29.3644 33.539 29.3826 33.5314C29.4008 33.5239 29.4203 33.52 29.44 33.52C29.4602 33.5198 29.4802 33.524 29.4987 33.5322C29.5171 33.5405 29.5335 33.5526 29.5468 33.5678C29.5601 33.583 29.57 33.6009 29.5757 33.6203C29.5815 33.6396 29.5829 33.66 29.58 33.68C29.5788 33.6997 29.5736 33.719 29.5649 33.7367C29.5561 33.7544 29.544 33.7702 29.5291 33.7832C29.5143 33.7962 29.497 33.8062 29.4782 33.8125C29.4595 33.8188 29.4397 33.8214 29.42 33.82" fill="#ABFDE5"/>
<path d="M54.7001 39.58C54.6647 39.575 54.6326 39.5567 54.6103 39.5288C54.588 39.5009 54.5772 39.4656 54.5801 39.43C54.58 39.4121 54.5837 39.3943 54.5908 39.3778C54.598 39.3614 54.6084 39.3466 54.6216 39.3344C54.6347 39.3221 54.6503 39.3128 54.6672 39.3069C54.6842 39.301 54.7022 39.2986 54.7201 39.3C54.7385 39.3013 54.7564 39.3062 54.7729 39.3144C54.7894 39.3226 54.8041 39.334 54.8162 39.348C54.8283 39.3619 54.8375 39.3781 54.8433 39.3956C54.8491 39.4131 54.8514 39.4316 54.85 39.45C54.8488 39.4684 54.8439 39.4864 54.8357 39.5029C54.8274 39.5194 54.816 39.5341 54.8021 39.5462C54.7881 39.5583 54.7719 39.5675 54.7544 39.5733C54.7369 39.5791 54.7184 39.5814 54.7001 39.58Z" fill="#ABFDE5"/>
<path d="M58.0601 45.26C58.0302 45.2588 58.001 45.2515 57.9741 45.2386C57.9472 45.2257 57.9232 45.2075 57.9036 45.1851C57.8839 45.1626 57.869 45.1364 57.8598 45.108C57.8506 45.0797 57.8473 45.0497 57.85 45.02C57.8513 44.9902 57.8586 44.961 57.8714 44.9341C57.8843 44.9071 57.9025 44.8831 57.925 44.8635C57.9474 44.8439 57.9736 44.829 58.002 44.8198C58.0304 44.8106 58.0603 44.8073 58.0901 44.81C58.1493 44.8151 58.2042 44.843 58.2434 44.8877C58.2826 44.9324 58.3029 44.9906 58.3001 45.05C58.2988 45.0798 58.2915 45.109 58.2787 45.1359C58.2658 45.1629 58.2476 45.1869 58.2251 45.2065C58.2027 45.2261 58.1765 45.241 58.1481 45.2502C58.1197 45.2594 58.0898 45.2627 58.0601 45.26Z" fill="#ABFDE5"/>
<path d="M60.8399 46.67C60.7931 46.665 60.7497 46.6429 60.7183 46.6077C60.6869 46.5726 60.6697 46.5271 60.6699 46.48C60.6711 46.4567 60.6771 46.434 60.6875 46.4131C60.6978 46.3923 60.7124 46.3738 60.7302 46.3588C60.748 46.3438 60.7687 46.3326 60.791 46.3259C60.8134 46.3192 60.8368 46.3172 60.8599 46.32C60.8832 46.3212 60.906 46.3272 60.9268 46.3375C60.9477 46.3479 60.9662 46.3625 60.9812 46.3803C60.9962 46.3981 61.0074 46.4188 61.014 46.4411C61.0207 46.4634 61.0227 46.4869 61.0199 46.51C61.0187 46.5323 61.013 46.5542 61.0032 46.5743C60.9935 46.5945 60.9799 46.6125 60.9631 46.6274C60.9464 46.6422 60.9269 46.6537 60.9058 46.661C60.8846 46.6683 60.8623 46.6713 60.8399 46.67Z" fill="#ABFDE5"/>
</g>
<defs>
<linearGradient id="paint0_linear_1857_1076" x1="29.6194" y1="112.14" x2="29.6194" y2="61.4595" gradientUnits="userSpaceOnUse">
<stop stop-color="#9999FF"/>
<stop offset="0.5" stop-color="#4CFAC7"/>
<stop offset="1" stop-color="#9370DB"/>
</linearGradient>
<linearGradient id="paint1_linear_1857_1076" x1="15.1801" y1="76.67" x2="89.3101" y2="76.67" gradientUnits="userSpaceOnUse">
<stop stop-color="#4CFAC7"/>
<stop offset="1" stop-color="#9999FF"/>
</linearGradient>
<linearGradient id="paint2_linear_1857_1076" x1="89.321" y1="75.0965" x2="13.4561" y2="75.3927" gradientUnits="userSpaceOnUse">
<stop stop-color="#4CFAC7"/>
<stop offset="1" stop-color="#9999FF"/>
</linearGradient>
<linearGradient id="paint3_linear_1857_1076" x1="22.5801" y1="76.64" x2="43.7301" y2="76.64" gradientUnits="userSpaceOnUse">
<stop stop-color="#9999FF"/>
<stop offset="0.5" stop-color="#4CFAC7"/>
<stop offset="1" stop-color="#9370DB"/>
</linearGradient>
<linearGradient id="paint4_linear_1857_1076" x1="44.3446" y1="92.0021" x2="90.2641" y2="92.0021" gradientUnits="userSpaceOnUse">
<stop stop-color="#9999FF"/>
<stop offset="1" stop-color="#4CFAC7"/>
</linearGradient>
<linearGradient id="paint5_linear_1857_1076" x1="25.9159" y1="71.4769" x2="62.9344" y2="71.4769" gradientUnits="userSpaceOnUse">
<stop stop-color="#4CFAC7"/>
<stop offset="1" stop-color="#9999FF"/>
</linearGradient>
<linearGradient id="paint6_linear_1857_1076" x1="33.0606" y1="90.8652" x2="69.4811" y2="90.8652" gradientUnits="userSpaceOnUse">
<stop stop-color="#4CFAC7"/>
<stop offset="1" stop-color="#9999FF"/>
</linearGradient>
<clipPath id="clip0_1857_1076">
<rect width="107.23" height="117.27" fill="white"/>
</clipPath>
</defs>
</svg>
