<svg width="29" height="22" viewBox="0 0 29 22" fill="none" xmlns="http://www.w3.org/2000/svg">
<path d="M25.2934 7.08123C25.4529 7.80117 25.5454 8.54111 25.5454 9.30105C25.5454 15.1697 20.5791 20.062 14.0396 21.1128C15.4226 21.6728 16.9722 22 18.6234 22C20.1804 22 21.6503 21.7128 22.9771 21.2128C24.6572 21.7873 26.4915 21.9364 28.0086 21.9364C27.3235 21.1123 26.7433 20.2061 26.2812 19.2384C27.9632 17.7331 29 15.7387 29 13.5425C29 10.9464 27.5554 8.63201 25.2934 7.08123ZM22.8266 9.30105C22.8266 4.16511 17.7172 0 11.4133 0C5.10944 0 0 4.16511 0 9.30105C0 11.9808 1.39744 14.3879 3.62319 16.0859C3.06501 17.52 2.27842 18.8536 1.29412 20.0347C3.57425 20.0347 6.5105 19.7347 8.77069 18.3421C9.62075 18.5076 10.5034 18.6039 11.4133 18.6039C17.7172 18.6021 22.8266 14.4388 22.8266 9.30105Z" fill="#F1F1F1"/>
</svg>
