<svg width="26" height="25" viewBox="0 0 26 25" fill="none" xmlns="http://www.w3.org/2000/svg">
<path d="M21.916 10.9375H15.0801C14.4585 10.9375 13.8623 10.6906 13.4228 10.251C12.9833 9.81149 12.7363 9.21535 12.7363 8.59375V1.75781C12.7363 1.70601 12.7158 1.65633 12.6791 1.61971C12.6425 1.58308 12.5928 1.5625 12.541 1.5625H8.04883C7.22003 1.5625 6.42517 1.89174 5.83912 2.47779C5.25307 3.06384 4.92383 3.8587 4.92383 4.6875V20.3125C4.92383 21.1413 5.25307 21.9362 5.83912 22.5222C6.42517 23.1083 7.22003 23.4375 8.04883 23.4375H18.9863C19.8151 23.4375 20.61 23.1083 21.196 22.5222C21.7821 21.9362 22.1113 21.1413 22.1113 20.3125V11.1328C22.1113 11.081 22.0908 11.0313 22.0541 10.9947C22.0175 10.9581 21.9678 10.9375 21.916 10.9375Z" fill="#F1F1F1"/>
<path d="M22.1885 9.05037L15.1665 2.0284C15.1528 2.01482 15.1355 2.00559 15.1166 2.00185C15.0977 1.99812 15.0781 2.00005 15.0603 2.00741C15.0425 2.01477 15.0273 2.02722 15.0166 2.04321C15.0059 2.05919 15.0001 2.07799 15 2.09725V8.43563C15 8.64283 15.0823 8.84154 15.2288 8.98805C15.3753 9.13457 15.574 9.21688 15.7813 9.21688H22.1196C22.1389 9.21679 22.1577 9.21102 22.1737 9.20029C22.1897 9.18955 22.2021 9.17433 22.2095 9.15654C22.2168 9.13874 22.2188 9.11917 22.215 9.10028C22.2113 9.08139 22.2021 9.06403 22.1885 9.05037Z" fill="#F1F1F1"/>
</svg>
