<svg width="31" height="22" viewBox="0 0 31 22" fill="none" xmlns="http://www.w3.org/2000/svg">
<path d="M15.9589 0.173192C15.7775 0.0609538 15.5541 0 15.3241 0C15.0941 0 14.8707 0.0609538 14.6893 0.173192L0 9.26397L1.27062 10.5394L3.06667 9.42786V19.4711C3.06775 19.9012 3.28349 20.3134 3.66666 20.6175C4.04984 20.9217 4.56922 21.0929 5.11111 21.0938H25.5556C26.0974 21.0929 26.6168 20.9217 27 20.6175C27.3832 20.3134 27.5989 19.9012 27.6 19.4711V9.43516L29.396 10.5467L30.6667 9.27127L15.9589 0.173192ZM17.3778 19.4711H13.2889V12.9806H17.3778V19.4711ZM19.4222 19.4711V12.9806C19.4217 12.5504 19.2061 12.1379 18.8228 11.8337C18.4395 11.5295 17.9198 11.3584 17.3778 11.358H13.2889C12.7468 11.3584 12.2271 11.5295 11.8438 11.8337C11.4606 12.1379 11.245 12.5504 11.2444 12.9806V19.4711H5.11111V8.16302L15.3333 1.84288L25.5556 8.17113V19.4711H19.4222Z" fill="#F5F5F5"/>
</svg>
