<svg width="18" height="14" viewBox="0 0 18 14" fill="none" xmlns="http://www.w3.org/2000/svg">
<g id="&#240;&#159;&#166;&#134; icon &#34;reply-all&#34;">
<path id="Vector" d="M4.25965 4.93237L9.75978 0.182835C10.2412 -0.232947 11 0.104616 11 0.75046V3.3368C15.0369 3.65652 18 4.96843 18 9.07268C18 10.9927 16.7631 12.8948 15.3958 13.8893C14.9692 14.1997 14.3611 13.8102 14.5184 13.3071C15.7219 9.45827 14.3959 8.01077 11 7.61912V10.2496C11 10.8965 10.2406 11.2325 9.75978 10.8172L4.25965 6.06762C3.91368 5.76884 3.91322 5.23159 4.25965 4.93237ZM0.259652 6.06762L5.75978 10.8172C6.24062 11.2325 7 10.8965 7 10.2496V9.75524L3.60606 6.82446C3.41578 6.66021 3.26315 6.45687 3.15856 6.2283C3.05397 5.99973 2.99989 5.75129 3 5.49993C2.99989 5.24859 3.05398 5.00019 3.15856 4.77164C3.26314 4.54309 3.41576 4.33978 3.60603 4.17555L7 1.24474V0.75046C7 0.104616 6.24125 -0.232947 5.75978 0.182835L0.259652 4.93237C-0.0867852 5.23159 -0.0863164 5.76884 0.259652 6.06762Z" fill="#F2ECE4"/>
</g>
</svg>
