<svg width="27" height="27" viewBox="0 0 27 27" fill="none" xmlns="http://www.w3.org/2000/svg">
<path d="M16.75 25.3125V23.3919C12.5592 23.1504 10.0132 20.9914 10 17.7188H13.7969C13.8902 19.1078 15.0551 20.1683 16.75 20.3555V15.1875L15.3383 14.8184C12.1215 14.0706 10.4003 12.2138 10.4003 9.43523C10.4003 6.1599 12.7464 4.01203 16.75 3.69141V1.6875H18.4375V3.69141C22.5186 4.02363 24.7129 6.20895 24.7656 9.28125H20.9688C20.9287 8.01246 20.134 6.99311 18.4375 6.85547V11.707L20.0628 12.0909C23.4794 12.8387 25.1875 14.6074 25.1875 17.5078C25.1875 20.9007 22.8809 23.0913 18.4375 23.3782V25.3125H16.75ZM16.75 11.3906V6.85547C15.2951 6.93563 14.2572 7.82947 14.2572 9.09826C14.2572 10.2742 15.1216 11.0431 16.75 11.3906ZM18.4375 15.5039V20.3555C20.4493 20.2743 21.4107 19.3577 21.4107 17.9418C21.4107 16.6456 20.4493 15.7729 18.4375 15.5039Z" fill="#F2ECE4"/>
</svg>
