<svg width="47" height="47" viewBox="0 0 47 47" fill="none" xmlns="http://www.w3.org/2000/svg">
<circle cx="23.5" cy="23.5" r="23.5" fill="#F28705"/>
<path d="M34.7682 13.1749C32.6193 12.241 30.3519 11.5744 28.0224 11.1919C28.0013 11.1885 27.9796 11.1914 27.9603 11.2002C27.941 11.209 27.9251 11.2232 27.9147 11.2409C27.6226 11.7313 27.2995 12.3727 27.0738 12.8748C24.5627 12.5139 22.0085 12.5139 19.4974 12.8748C19.2456 12.3154 18.9607 11.7699 18.6441 11.2409C18.6335 11.2234 18.6175 11.2093 18.5983 11.2006C18.5791 11.1918 18.5575 11.1888 18.5364 11.1919C16.2064 11.5724 13.9384 12.2393 11.7906 13.1749C11.7723 13.1815 11.7569 13.194 11.7471 13.2102C7.45155 19.2888 6.27306 25.2183 6.85091 31.0733C6.85299 31.1008 6.87163 31.1282 6.89441 31.1459C9.3958 32.9007 12.1937 34.2404 15.1687 35.1081C15.1897 35.1143 15.2123 35.1141 15.2331 35.1074C15.254 35.1007 15.2721 35.0879 15.2847 35.0708C15.9226 34.247 16.4901 33.3781 16.9789 32.464C16.9891 32.4452 16.9926 32.4237 16.9889 32.4029C16.9851 32.382 16.9744 32.3629 16.9582 32.3483C16.9475 32.3387 16.9348 32.3314 16.9209 32.3267C16.0286 32.0019 15.1644 31.6117 14.3361 31.1596C14.313 31.1472 14.2958 31.1268 14.2881 31.1027C14.2803 31.0786 14.2827 31.0527 14.2947 31.0302C14.3017 31.0156 14.3124 31.0028 14.3257 30.9929C14.4997 30.8693 14.6737 30.7399 14.8394 30.6104C14.854 30.5993 14.8716 30.5921 14.8902 30.5897C14.9088 30.5873 14.9278 30.5897 14.945 30.5967C20.3694 32.9426 26.2412 32.9426 31.5993 30.5967C31.6172 30.5894 31.6368 30.5868 31.6562 30.5892C31.6755 30.5916 31.6938 30.5989 31.709 30.6104C31.8747 30.7399 32.0487 30.8693 32.2227 30.9929C32.2368 31.0027 32.2481 31.0156 32.2556 31.0305C32.2632 31.0454 32.2667 31.0619 32.2659 31.0784C32.2651 31.0949 32.2599 31.111 32.2509 31.1251C32.242 31.1393 32.2294 31.1512 32.2144 31.1596C31.388 31.6159 30.5227 32.0056 29.6275 32.3247C29.6132 32.3296 29.6003 32.3374 29.5895 32.3476C29.5788 32.3578 29.5706 32.3701 29.5654 32.3836C29.5606 32.3967 29.5587 32.4106 29.5597 32.4244C29.5608 32.4382 29.5648 32.4517 29.5716 32.464C30.0687 33.3761 30.6382 34.247 31.2637 35.0708C31.2764 35.0879 31.2944 35.1007 31.3153 35.1074C31.3361 35.1141 31.3587 35.1143 31.3797 35.1081C34.3597 34.2431 37.1622 32.9032 39.6665 31.1459C39.679 31.1377 39.6894 31.1269 39.697 31.1143C39.7045 31.1018 39.7089 31.0877 39.7099 31.0733C40.4017 24.3043 38.5522 18.4238 34.8096 13.2122C34.8058 13.2036 34.8002 13.1958 34.793 13.1894C34.7859 13.183 34.7774 13.178 34.7682 13.1749ZM17.7887 27.5074C16.1546 27.5074 14.8104 26.0873 14.8104 24.3455C14.8104 22.6017 16.1297 21.1816 17.7887 21.1816C19.4602 21.1816 20.7919 22.6135 20.7671 24.3455C20.7671 26.0873 19.4477 27.5074 17.7887 27.5074ZM28.7991 27.5074C27.167 27.5074 25.8207 26.0873 25.8207 24.3455C25.8207 22.6017 27.14 21.1816 28.7991 21.1816C30.4705 21.1816 31.8043 22.6135 31.7774 24.3455C31.7774 26.0873 30.4705 27.5074 28.7991 27.5074Z" fill="white"/>
</svg>
